<svg width="13" height="16" viewBox="0 0 13 16" fill="none" xmlns="http://www.w3.org/2000/svg">
<path d="M10.7031 14.8914C9.88747 15.6821 8.99691 15.5573 8.13964 15.1827C7.23244 14.7999 6.40014 14.7832 5.44299 15.1827C4.24449 15.6987 3.61194 15.5489 2.89616 14.8914C-1.16545 10.705 -0.566197 4.32956 4.04473 4.09651C5.16834 4.15477 5.9507 4.71241 6.60821 4.76235C7.59032 4.5626 8.53082 3.98831 9.57952 4.06322C10.8363 4.1631 11.7851 4.66248 12.4093 5.56136C9.81256 7.11775 10.4285 10.5385 12.8088 11.4956C12.3344 12.7441 11.7185 13.9842 10.6948 14.8997L10.7031 14.8914ZM6.52498 4.04657C6.40014 2.19055 7.9066 0.659122 9.63778 0.509308C9.87914 2.65664 7.6902 4.25465 6.52498 4.04657Z" fill="black"/>
</svg>
