<svg width="48" height="48" viewBox="0 0 48 48" fill="none" xmlns="http://www.w3.org/2000/svg">
<path d="M24 4C35.048 4 44 12.956 44 24C44 35.044 35.048 44 24 44M18 43C15.6322 42.2109 13.4159 41.0246 11.446 39.492M11.446 8.508C13.4221 6.98492 15.6367 5.79956 18 5M4 20.492C4.44555 18.1467 5.32458 15.905 6.592 13.882M4 27.508C4.44555 29.8533 5.32458 32.095 6.592 34.118" stroke="#2854DB" stroke-width="3" stroke-linecap="round" stroke-linejoin="round"/>
<path d="M23.992 23H24.004M25.438 32.43C25.0501 32.798 24.5357 33.0031 24.001 33.0031C23.4663 33.0031 22.952 32.798 22.564 32.43C19.034 29.064 14.304 25.302 16.61 19.842C17.858 16.89 20.85 15 24 15C27.15 15 30.144 16.89 31.39 19.84C33.694 25.296 28.976 29.076 25.438 32.43Z" stroke="#2854DB" stroke-width="3" stroke-linecap="round" stroke-linejoin="round"/>
</svg>
