<svg width="287" height="50" viewBox="0 0 287 50" fill="none" xmlns="http://www.w3.org/2000/svg">
<g clip-path="url(#clip0_56_943)">
<path d="M9.29732 17.4277C8.60707 18.0421 7.96525 18.7349 7.35977 19.4638C7.98947 19.5963 8.62523 19.6867 9.29732 19.6867C9.96941 19.6867 10.6112 19.6024 11.2349 19.4638C10.6415 18.7349 9.98757 18.0421 9.29732 17.4277ZM1.02637 13.3252C1.69241 15.8734 3.53308 17.9758 5.93686 18.9939C6.65135 18.1204 7.43848 17.3252 8.31643 16.6144C6.19724 14.9758 3.69656 13.8373 1.02637 13.3313V13.3252ZM12.6578 18.9939C15.0615 17.9819 16.9022 15.8734 17.5743 13.3252C14.9102 13.8313 12.4035 14.9698 10.2782 16.6084C11.144 17.3192 11.9433 18.1204 12.6578 18.9879V18.9939ZM9.29732 2.68066C4.58057 2.68066 0.753906 6.48789 0.753906 11.1867C0.753906 11.7048 0.8084 12.2108 0.899223 12.6987C3.95087 13.012 6.84511 14.1144 9.29732 15.8554C11.7616 14.1084 14.6498 13.012 17.7075 12.6987C17.7983 12.2108 17.8528 11.6987 17.8528 11.1867C17.8528 6.48187 14.0322 2.68066 9.30338 2.68066H9.29732ZM14.3228 9.94572C14.3228 10.1264 14.3047 10.3192 14.2926 10.4879C14.1291 9.01199 13.3117 7.72283 12.1431 6.93368C13.1664 8.82524 12.8757 11.2289 11.2773 12.8252C11.138 12.9578 11.0048 13.0843 10.8655 13.1927C12.4337 11.2289 12.3247 8.36139 10.4962 6.54211C10.3327 6.37343 10.1571 6.22886 9.98152 6.0903C9.94519 6.0903 9.8907 6.08428 9.86042 6.07825V13.9216C9.86042 14.2349 9.60612 14.4758 9.30338 14.4758C9.00063 14.4758 8.75238 14.2349 8.75238 13.9216H8.75844V6.07825C8.71 6.08428 8.66156 6.0903 8.61312 6.0903C8.44964 6.22886 8.268 6.37343 8.11662 6.54211C6.27595 8.36139 6.16091 11.2228 7.74122 13.1927C7.59591 13.0783 7.45665 12.9578 7.32949 12.8252C5.73099 11.2289 5.42825 8.82524 6.45759 6.93368C5.28294 7.72886 4.47764 9.01199 4.31416 10.4879C4.29599 10.3192 4.27783 10.1264 4.27783 9.94572C4.27783 7.68669 5.79154 5.78307 7.85021 5.16862C6.45759 4.90356 4.96203 5.24091 3.7995 6.17464C3.91454 6.03609 4.03564 5.89753 4.1749 5.765C5.5554 4.3915 7.55352 3.98187 9.29732 4.55416C11.0411 3.98187 13.0392 4.38548 14.4318 5.765C14.5529 5.89753 14.6801 6.03609 14.7951 6.17464C13.6265 5.24091 12.1431 4.90356 10.7444 5.16862C12.8091 5.78307 14.3228 7.68669 14.3228 9.94572Z" fill="#A8A9AC"/>
<path d="M37.3366 16.3129C37.1307 16.8008 36.8219 17.2828 36.4586 17.7045C35.8228 18.3973 34.8359 19.0539 33.2132 19.0539C30.6581 19.0539 28.7266 16.2406 28.7266 13.084C28.7266 10.1562 30.7065 7.24064 33.8066 7.24064C35.7441 7.24064 36.9733 8.57191 37.3668 8.57191C37.827 8.57191 37.9118 7.831 38.0813 7.52377H38.7776C38.6565 8.08401 38.6565 8.75263 38.6565 9.31889V16.1623C38.6565 16.9093 38.7776 18.3129 40.3277 18.4032H42.9615V19.0599H41.0482C39.2136 19.0599 37.718 18.8069 37.3366 16.319V16.3129ZM33.8066 7.89727C31.53 7.89727 30.4522 10.4574 30.4522 13.2587C30.4522 17.2105 32.3353 18.3972 33.5704 18.3972C35.0478 18.3972 36.3072 17.4153 36.7735 15.9514C37.0278 15.1081 37.0823 14.1562 37.0823 12.7286C37.0823 10.4455 36.719 7.90323 33.8066 7.90323V7.89727ZM32.5411 4.50567C32.0022 4.50567 31.5905 4.12615 31.5905 3.58398C31.5905 3.04182 32.0022 2.58398 32.5411 2.58398C33.08 2.58398 33.522 3.02374 33.522 3.58398C33.522 4.14423 33.1042 4.50567 32.5411 4.50567ZM35.9682 4.50567C35.4051 4.50567 34.9933 4.12615 34.9933 3.58398C34.9933 3.04182 35.4051 2.58398 35.9682 2.58398C36.5313 2.58398 36.9248 3.02374 36.9248 3.58398C36.9248 4.14423 36.5131 4.50567 35.9682 4.50567Z" fill="#221E1E"/>
<path d="M42.6707 23.5965C42.1258 23.5965 41.708 23.211 41.708 22.6447C41.708 22.0784 42.1258 21.6688 42.6707 21.6688C43.2157 21.6688 43.6213 22.1025 43.6213 22.6447C43.6213 23.1869 43.2399 23.5965 42.6707 23.5965ZM51.311 19.0483C49.4764 19.0483 48.3502 18.2833 47.4904 16.5363C47.1816 18.1507 45.8677 19.0483 44.0573 19.0483H42.4649V18.3917H43.5911C45.244 18.3555 45.9161 17.3857 45.9161 15.7411V9.15674C45.9161 8.51217 45.8919 8.40373 45.014 8.15674L47.563 7.63867V14.1507C47.563 15.8736 48.7195 18.3917 50.754 18.3917H51.5471V19.0483H51.2989H51.311ZM46.0978 23.5965C45.5407 23.5965 45.1169 23.211 45.1169 22.6447C45.1169 22.0784 45.5347 21.6688 46.0978 21.6688C46.6609 21.6688 47.0605 22.1025 47.0605 22.6447C47.0605 23.1869 46.6367 23.5965 46.0978 23.5965Z" fill="#221E1E"/>
<path d="M51.0762 18.3917H51.3123C53.0319 18.3917 53.7343 17.3857 53.7343 15.7411V4.21098C53.7343 3.57243 53.71 3.33146 52.826 3.08447L55.3751 2.56641V15.7471C55.3751 17.8797 53.9643 19.0544 51.8512 19.0544H51.0762V18.3977V18.3917Z" fill="#221E1E"/>
<path d="M59.9405 15.9039V4.35573C59.9405 3.63284 59.559 3.3738 58.0332 3.3738V2.71115L61.5694 2.56055V16.0545C61.5694 17.5124 62.3081 18.3015 63.6281 18.3919H64.6877V19.0485H63.5009C61.4362 19.0485 59.9405 18.3015 59.9405 15.9039Z" fill="#221E1E"/>
<path d="M80.6169 19.0484C78.7883 19.0484 77.8377 18.2833 76.9052 16.8194C76.2876 18.6387 74.6407 20.1869 71.9887 20.1869C69.6939 20.1869 68.5495 18.8194 67.7866 17.7712L67.6837 17.6688C67.0298 18.5182 66.3879 19.0484 64.9529 19.0484H64.2021V18.3917H64.9832C65.1588 18.3556 65.837 18.2592 66.2002 17.8978C68.7978 15.5062 66.9147 9.43992 72.6608 9.43992C75.6337 9.43992 77.2564 12.5423 77.2564 14.9218C77.2564 15.2351 77.2261 15.5664 77.1777 15.8435C77.6136 17.1508 78.649 18.3917 80.0659 18.3917H80.635C82.3667 18.3917 83.057 17.3857 83.057 15.7411V4.21098C83.057 3.57243 83.0388 3.33146 82.1306 3.08447L84.6797 2.56641V15.7471C84.6797 17.8797 83.2689 19.0544 81.18 19.0544H80.635L80.6169 19.0484ZM72.2188 10.0182C69.2216 10.0182 69.5365 14.3797 68.0773 17.0544C68.1862 17.1267 68.265 17.211 68.2892 17.2833C68.9915 18.1026 70.142 19.5182 72.0856 19.5182C73.9141 19.5182 75.5005 17.5182 75.5005 15.0484C75.5005 12.5785 74.4227 10.1026 72.2854 10.0182H72.2188Z" fill="#221E1E"/>
<path d="M88.476 4.21098C88.476 3.57243 88.4518 3.33146 87.5557 3.08447L90.1048 2.56641V19.0544H88.476V4.21098Z" fill="#221E1E"/>
<path d="M112.151 15.048C112.151 19.2347 109.669 23.5962 104.8 23.5962C99.9323 23.5962 97.4195 19.2347 97.4195 15.048V11.3612C97.4195 10.6685 97.0441 10.4094 95.5183 10.4094V9.74677L99.0543 9.59014V15.054C99.0543 21.2166 101.936 22.9094 104.806 22.9094C107.277 22.9094 109.802 21.6203 110.377 17.2166C109.705 18.3612 108.694 19.06 106.841 19.06C105.194 19.06 103.135 17.5239 103.135 15.0901C103.135 10.5721 106.229 7.66845 110.528 7.66845H112.175L112.157 15.06L112.151 15.048ZM110.522 8.36123C110.292 8.30701 110.08 8.27689 109.899 8.27689C107.404 8.27689 104.746 10.9335 104.746 14.9215C104.746 16.4877 105.648 18.4154 107.374 18.4877C109.178 18.4877 110.522 16.5419 110.522 14.4094V8.36123ZM107.81 4.77088C107.271 4.77088 106.865 4.37932 106.865 3.84317C106.865 3.30703 107.265 2.87329 107.81 2.87329C108.385 2.87329 108.797 3.28293 108.797 3.84317C108.797 4.40341 108.379 4.77088 107.81 4.77088ZM111.243 4.77088C110.674 4.77088 110.286 4.37932 110.286 3.84317C110.286 3.30703 110.668 2.87329 111.243 2.87329C111.782 2.87329 112.187 3.28293 112.187 3.84317C112.187 4.40341 111.782 4.77088 111.243 4.77088Z" fill="#221E1E"/>
<path d="M127.821 19.0478H124.103C123.231 22.9755 120.367 23.9032 118.272 23.9032C117.915 23.9032 117.558 23.8671 116.601 23.7948C118.92 23.2888 121.596 22.596 122.45 19.0478H119.023C117.394 19.0478 115.312 17.5117 115.312 15.0779C115.312 10.5599 118.399 7.65625 122.704 7.65625H124.382V16.843C124.382 17.4032 124.303 17.9213 124.23 18.3852H127.815V19.0418L127.821 19.0478ZM122.717 16.9514V8.36107C122.517 8.30685 122.287 8.27673 122.093 8.27673C119.629 8.27673 116.94 10.9334 116.94 14.9213C116.94 16.5117 117.842 18.3008 119.592 18.3912H122.583C122.662 17.9273 122.692 17.4876 122.717 16.9514Z" fill="#221E1E"/>
<path d="M127.324 18.3917H127.585C129.31 18.3917 129.994 17.3857 129.994 15.7411V11.0784C129.994 10.4399 129.958 10.3314 129.08 10.0784L131.605 9.56638V14.1507C131.605 15.8435 132.737 18.3917 134.766 18.3917C136.528 18.3917 137.218 17.3857 137.218 15.7411V10.1266C137.218 9.45795 137.2 9.38566 136.298 9.10253L138.847 8.61458V14.1507C138.847 15.8736 140.033 18.3917 142.038 18.3917C143.793 18.3917 144.496 17.3857 144.496 15.7411V9.15674C144.496 8.51217 144.465 8.40373 143.563 8.15674L146.112 7.63867V14.1507C146.112 15.8736 147.305 18.3917 149.309 18.3917H150.109V19.0483H149.866C148.05 19.0483 146.918 18.2592 146.034 16.5363C145.731 18.1507 144.435 19.0483 142.619 19.0483C140.802 19.0483 139.731 18.3375 138.774 16.5363C138.465 18.1507 137.151 19.0483 135.401 19.0483C133.652 19.0483 132.586 18.3013 131.666 16.7953L131.581 16.6688C131.23 18.2049 129.934 19.0483 128.136 19.0483H127.33V18.3917H127.324Z" fill="#221E1E"/>
<path d="M149.648 18.3917H149.872C151.61 18.3917 152.313 17.3857 152.313 15.7411V4.21098C152.313 3.57243 152.282 3.33146 151.398 3.08447L153.959 2.56641V15.7471C153.959 17.8797 152.537 19.0544 150.423 19.0544H149.648V18.3977V18.3917Z" fill="#221E1E"/>
<path d="M157.768 4.21098C157.768 3.57243 157.744 3.33146 156.842 3.08447L159.391 2.56641V19.0544H157.768V4.21098Z" fill="#221E1E"/>
<path d="M175.345 16.3129C175.146 16.8008 174.837 17.2828 174.467 17.7045C173.826 18.3973 172.851 19.0539 171.228 19.0539C168.661 19.0539 166.735 16.2406 166.735 13.084C166.735 10.1562 168.715 7.24064 171.815 7.24064C173.747 7.24064 174.988 8.57191 175.376 8.57191C175.836 8.57191 175.908 7.831 176.09 7.52377H176.78C176.659 8.08401 176.659 8.75263 176.659 9.31889V16.1623C176.659 16.9093 176.78 18.3129 178.33 18.4032H180.958V19.0599H179.063C177.234 19.0599 175.733 18.8069 175.339 16.319L175.345 16.3129ZM171.821 7.89727C169.551 7.89727 168.467 10.4574 168.467 13.2587C168.467 17.2105 170.35 18.3972 171.597 18.3972C173.057 18.3972 174.322 17.4153 174.788 15.9514C175.049 15.1081 175.097 14.1562 175.097 12.7286C175.097 10.4455 174.746 7.90323 171.821 7.90323V7.89727ZM170.562 4.50567C170.023 4.50567 169.605 4.12615 169.605 3.58398C169.605 3.04182 170.023 2.58398 170.562 2.58398C171.101 2.58398 171.537 3.02374 171.537 3.58398C171.537 4.14423 171.113 4.50567 170.562 4.50567ZM173.995 4.50567C173.42 4.50567 173.008 4.12615 173.008 3.58398C173.008 3.04182 173.42 2.58398 173.995 2.58398C174.528 2.58398 174.94 3.02374 174.94 3.58398C174.94 4.14423 174.528 4.50567 173.995 4.50567Z" fill="#221E1E"/>
<path d="M189.32 19.0478C187.491 19.0478 186.359 18.2828 185.505 16.5358C185.202 18.1502 183.882 19.0478 182.078 19.0478H180.479V18.3912H181.618C183.259 18.3551 183.937 17.3852 183.937 15.7406V9.15627C183.937 8.51169 183.907 8.40326 183.023 8.15627L185.578 7.6382V14.1502C185.578 15.8731 186.734 18.3912 188.775 18.3912H189.58V19.0478H189.32ZM186.02 4.53577V3.97553H185.124C183.882 3.97553 183.234 2.66227 183.234 1.84299C183.234 1.25866 183.567 0.668295 184.24 0.668295C184.548 0.668295 184.863 0.716487 184.966 0.981548C184.815 1.08396 184.633 1.33095 184.633 1.54179C184.633 1.84299 184.887 2.07793 185.178 2.07793C185.469 2.07793 185.687 1.92131 185.687 1.43938C185.687 0.698415 185.093 0.15625 184.294 0.15625C183.138 0.15625 182.441 1.08396 182.441 2.15625C182.441 2.97553 183.065 3.6442 183.598 3.98155H182.229L181.999 4.54179H186.02V4.53577Z" fill="#221E1E"/>
<path d="M189.302 23.5965C188.757 23.5965 188.346 23.211 188.346 22.6447C188.346 22.0784 188.757 21.6688 189.302 21.6688C189.847 21.6688 190.253 22.1025 190.253 22.6447C190.253 23.1869 189.865 23.5965 189.302 23.5965ZM197.937 19.0483C196.102 19.0483 194.976 18.2833 194.116 16.5363C193.819 18.1507 192.499 19.0483 190.683 19.0483H189.084V18.3917H190.223C191.876 18.3555 192.542 17.3857 192.542 15.7411V9.15674C192.542 8.51217 192.505 8.40373 191.64 8.15674L194.195 7.63867V14.1507C194.195 15.8736 195.357 18.3917 197.392 18.3917H198.185V19.0483H197.931H197.937ZM192.729 23.5965C192.154 23.5965 191.742 23.211 191.742 22.6447C191.742 22.0784 192.154 21.6688 192.729 21.6688C193.268 21.6688 193.68 22.1025 193.68 22.6447C193.68 23.1869 193.268 23.5965 192.729 23.5965Z" fill="#221E1E"/>
<path d="M212.08 19.0477H197.7V18.3911H199.838C199.862 18.1742 199.916 18.0055 199.94 17.8127C199.959 17.4573 200.043 17.126 200.122 16.8188C200.582 14.614 202.035 12.614 204.476 12.614C206.589 12.614 207.775 14.0718 207.775 15.614C207.775 16.7344 207.103 17.867 205.559 18.385H210.143C210.143 12.2766 207.594 9.22239 205.293 9.22239C202.278 9.22239 201.375 10.9633 200.94 13.4573H200.637C200.685 9.84287 202.877 8.55371 205.251 8.55371H205.275C209.192 8.55371 212.074 13.5899 212.074 18.385V19.0417L212.08 19.0477ZM200.407 18.3911H201.817C203.707 18.3911 206.231 17.5658 206.231 15.1802C206.231 13.9513 205.178 13.3308 204.143 13.3308C202.635 13.3308 201.103 14.7706 200.709 16.6923L200.401 18.3911H200.407Z" fill="#221E1E"/>
<path d="M11.9199 36.3489H11.3204C10.9026 34.114 9.66139 31.4995 6.96093 31.4995C4.85383 31.4995 2.444 33.0236 2.444 38.5357C2.444 44.0477 4.5087 45.5718 7.05175 45.5718C9.85515 45.5718 11.4112 43.361 11.5323 40.2345H12.265C12.265 43.8791 10.3274 46.1803 7.05175 46.1803C2.67408 46.1803 0.458008 42.2766 0.458008 38.5417C0.458008 34.1923 3.45516 30.9092 7.05175 30.9092C9.11646 30.9092 10.1761 32.2827 10.6302 32.2827C11.0177 32.2827 11.1933 31.6321 11.3204 31.3791H11.9199V36.355V36.3489Z" fill="#221E1E"/>
<path d="M20.3465 38.7045V44.4093C20.3465 45.0539 20.6008 45.1804 20.9217 45.1804C21.3394 45.1804 21.5877 44.7948 21.5877 43.5117H22.1871C22.1871 44.9454 21.7814 45.9153 20.4191 45.9153C19.4322 45.9153 18.9538 45.2707 18.9114 44.0659H18.8751C18.2757 45.2286 17.1495 46.1743 15.5692 46.1743C14.1644 46.1743 12.6628 45.331 12.6628 43.6623C12.6628 40.9334 16.8891 40.1984 18.8691 39.6864V38.1683C18.8691 36.9515 18.2273 36.1743 16.6712 36.1743C15.7629 36.1743 14.8365 36.4996 14.2553 36.9515L14.3037 36.9996C14.7336 37.0177 15.2059 37.337 15.2059 37.9213C15.2059 38.4274 14.8426 38.9695 14.1887 38.9695C13.5892 38.9695 13.2138 38.5177 13.2138 37.7647C13.2138 36.578 14.6852 35.584 16.6227 35.584C18.9962 35.584 20.3404 36.3611 20.3404 38.7105L20.3465 38.7045ZM18.8751 40.2527C16.9073 40.6804 14.3098 41.2828 14.3098 43.8129C14.3098 44.7948 15.1877 45.4334 16.0778 45.4334C17.6036 45.4334 18.8751 43.7647 18.8751 41.7828V40.2466V40.2527Z" fill="#221E1E"/>
<path d="M23.5202 37.2891C23.5202 36.6506 23.175 36.4277 21.8066 36.4277V35.8373L24.9552 35.7108V37.6144H24.9976C25.712 36.6024 26.2267 35.5723 28.14 35.5723C30.7315 35.5723 32.4813 38.1867 32.4813 40.8735C32.4813 43.5602 30.7315 46.1747 27.8009 46.1747C26.6324 46.1747 25.6394 45.6927 25.0157 44.8193H24.9733V48.0964C24.9733 48.7349 25.3245 48.9578 26.7414 48.9578V49.5662H21.6553V48.9578C23.1629 48.9578 23.5141 48.7409 23.5141 48.0964V37.2952L23.5202 37.2891ZM24.9794 40.8735C24.9794 44.5421 25.7181 45.5723 27.9523 45.5723C29.5387 45.5723 30.9253 44.2409 30.9253 40.8735C30.9253 37.506 29.5387 36.1747 27.9523 36.1747C26.3659 36.1747 24.9794 37.506 24.9794 40.8735Z" fill="#221E1E"/>
<path d="M38.2154 45.9156H33.1172V45.3132C34.6309 45.3132 34.976 45.1023 34.976 44.4517V37.2951C34.976 36.6565 34.6248 36.4336 33.2686 36.4336V35.8433L36.4413 35.7168V44.4577C36.4413 45.1083 36.7864 45.3192 38.2093 45.3192V45.9216L38.2154 45.9156ZM36.5685 32.3373C36.5685 32.9216 36.1204 33.3493 35.5391 33.3493C34.9579 33.3493 34.4916 32.9156 34.4916 32.3373C34.4916 31.7589 34.9458 31.2891 35.5391 31.2891C36.1325 31.2891 36.5685 31.7409 36.5685 32.3373Z" fill="#221E1E"/>
<path d="M44.5181 35.572V36.1684H41.2909V43.7828C41.2909 45.1142 41.9509 45.566 42.6956 45.566C43.3253 45.566 44.2699 45.0961 44.2699 43.3973V42.4756H44.8693V43.2527C44.8693 44.9696 44.0761 46.1744 42.3142 46.1744C40.7339 46.1744 39.8377 45.3069 39.8377 43.6865V36.1744H38.2393V35.578C40.0497 35.578 40.5583 33.825 40.6975 32.3672H41.2909V35.578H44.5181V35.572Z" fill="#221E1E"/>
<path d="M53.2494 38.7045V44.4093C53.2494 45.0539 53.5098 45.1804 53.8368 45.1804C54.2424 45.1804 54.4907 44.7948 54.4907 43.5117H55.1022C55.1022 44.9454 54.6965 45.9153 53.3403 45.9153C52.3412 45.9153 51.8689 45.2707 51.8205 44.0659H51.7781C51.1726 45.2286 50.0646 46.1743 48.4903 46.1743C47.0856 46.1743 45.584 45.331 45.584 43.6623C45.584 40.9334 49.8042 40.1984 51.7842 39.6864V38.1683C51.7842 36.9515 51.1423 36.1743 49.5923 36.1743C48.6901 36.1743 47.7516 36.4996 47.1764 36.9515L47.2188 36.9996C47.6547 37.0177 48.127 37.337 48.127 37.9213C48.127 38.4274 47.7516 38.9695 47.1159 38.9695C46.4801 38.9695 46.141 38.5177 46.141 37.7647C46.141 36.578 47.6063 35.584 49.5439 35.584C51.9113 35.584 53.2494 36.3611 53.2494 38.7105V38.7045ZM51.7781 40.2527C49.8163 40.6804 47.2127 41.2828 47.2127 43.8129C47.2127 44.7948 48.0967 45.4334 48.9808 45.4334C50.5126 45.4334 51.7781 43.7647 51.7781 41.7828V40.2466V40.2527Z" fill="#221E1E"/>
<path d="M58.5108 44.4452C58.5108 45.0958 58.856 45.3067 60.2728 45.3067V45.9091H55.1807V45.3067C56.7004 45.3067 57.0456 45.0958 57.0456 44.4452V32.7043C57.0456 32.0597 56.6944 31.8489 55.3441 31.8489V31.2404L58.5048 31.1621V44.4452H58.5108Z" fill="#221E1E"/>
<path d="M66.2131 31.168H70.397L74.2721 43.0354H74.3569L78.4499 31.168H82.4583V31.7583C80.7811 31.7583 80.4965 31.8668 80.4965 33.2342V43.8306C80.4965 45.2041 80.7811 45.3125 82.5006 45.3125V45.915H76.8272V45.3125C78.6195 45.3125 78.8556 45.2041 78.8556 43.8306V32.2824H78.8132L74.0481 45.915H73.5455L68.9983 32.2824H68.9438V43.7704C68.9438 44.8246 69.4464 45.2704 70.9964 45.3125V45.915H66.207V45.3125C67.7207 45.2704 68.2172 44.8246 68.2172 43.7704V33.2403C68.2172 31.8728 67.9387 31.7644 66.207 31.7644V31.174L66.2131 31.168Z" fill="#221E1E"/>
<path d="M90.6688 38.7045V44.4093C90.6688 45.0539 90.9291 45.1804 91.25 45.1804C91.6557 45.1804 91.9161 44.7948 91.9161 43.5117H92.5215C92.5215 44.9454 92.1098 45.9153 90.7535 45.9153C89.7545 45.9153 89.2883 45.2707 89.2519 44.0659H89.2035C88.5919 45.2286 87.4839 46.1743 85.9036 46.1743C84.4928 46.1743 82.9912 45.331 82.9912 43.6623C82.9912 40.9334 87.2114 40.1984 89.2035 39.6864V38.1683C89.2035 36.9515 88.5496 36.1743 87.0056 36.1743C86.0974 36.1743 85.171 36.4996 84.5897 36.9515L84.6381 36.9996C85.062 37.0177 85.5464 37.337 85.5464 37.9213C85.5464 38.4274 85.177 38.9695 84.5291 38.9695C83.9237 38.9695 83.5543 38.5177 83.5543 37.7647C83.5543 36.578 85.0377 35.584 86.9632 35.584C89.3427 35.584 90.6688 36.3611 90.6688 38.7105V38.7045ZM89.2095 40.2527C87.2478 40.6804 84.6381 41.2828 84.6381 43.8129C84.6381 44.7948 85.5221 45.4334 86.4001 45.4334C87.938 45.4334 89.2095 43.7647 89.2095 41.7828V40.2466V40.2527Z" fill="#221E1E"/>
<path d="M94.3807 37.289C94.3807 36.6504 94.0356 36.4275 92.6732 36.4275V35.8372L95.8399 35.7107V38.2829H95.9005C96.3849 37.042 97.1538 35.5781 98.7099 35.5781C99.5697 35.5781 100.369 36.1022 100.369 37.054C100.369 37.7046 99.9693 38.1022 99.376 38.1022C98.7826 38.1022 98.383 37.789 98.383 37.1444C98.383 36.7649 98.5646 36.4576 98.9037 36.2829C98.8431 36.1986 98.716 36.1745 98.5888 36.1745C98.0257 36.1745 96.7058 36.8191 96.1487 39.289C95.846 40.6384 95.846 42.6323 95.846 44.0239C95.846 45.1022 96.2032 45.3131 97.7896 45.3131V45.9155H92.6611V45.3131C94.0416 45.3131 94.3868 45.1022 94.3868 44.4516V37.295L94.3807 37.289Z" fill="#221E1E"/>
<path d="M110.71 35.8368V36.4272C109.117 36.5657 108.475 37.0718 105.793 39.7344L108.584 43.9814C109.396 45.2464 109.656 45.3067 110.867 45.3067V45.9091H108.215L104.746 40.6501L103.753 41.5537V44.4452C103.753 45.0958 104.092 45.3067 105.521 45.3067V45.9091H100.435V45.3067C101.936 45.3067 102.287 45.0958 102.287 44.4452V32.7043C102.287 32.0597 101.936 31.8489 100.586 31.8489V31.2404L103.759 31.1621V40.8428L107.077 37.8489C107.446 37.4995 107.743 37.2043 107.743 36.8669C107.743 36.5296 107.355 36.4332 106.108 36.4332V35.8428H110.722L110.71 35.8368Z" fill="#221E1E"/>
<path d="M112.551 40.6387V41.2532C112.551 43.6628 113.726 45.5664 115.857 45.5664C117.728 45.5664 118.461 44.705 119.284 43.5062L119.805 43.8495C118.509 45.7411 117.498 46.1688 115.682 46.1688C112.733 46.1688 110.929 43.5423 110.929 40.8676C110.929 37.7351 112.666 35.5664 115.591 35.5664C118.273 35.5664 119.805 38.0965 119.805 40.6266H112.551V40.6387ZM118.158 40.0303C118.158 38.2833 117.631 36.1748 115.421 36.1748C113.441 36.1748 112.551 38.1688 112.551 40.0303H118.158Z" fill="#221E1E"/>
<path d="M126.059 35.572V36.1684H122.831V43.7828C122.831 45.1142 123.479 45.566 124.224 45.566C124.854 45.566 125.798 45.0961 125.798 43.3973V42.4756H126.404V43.2527C126.404 44.9696 125.604 46.1744 123.836 46.1744C122.262 46.1744 121.366 45.3069 121.366 43.6865V36.1744H119.768V35.578C121.578 35.578 122.093 33.825 122.22 32.3672H122.837V35.578H126.065L126.059 35.572Z" fill="#221E1E"/>
<path d="M130.781 45.9148V45.3124C132.186 45.3124 132.658 45.1196 132.943 44.3726L137.902 31.1738H138.422L143.357 44.4991C143.611 45.1859 144.108 45.3184 145.228 45.3184V45.9208H139.73V45.3184C141.323 45.3184 141.644 45.1437 141.644 44.716C141.644 44.1196 140.554 41.6076 140.36 40.9027H134.989C134.893 41.2642 133.76 44.0955 133.76 44.7401C133.76 45.2401 134.239 45.3184 135.71 45.3184V45.9208H130.787L130.781 45.9148ZM135.244 40.1618H140.1L137.684 33.5594L135.244 40.1618Z" fill="#221E1E"/>
<path d="M153.632 44.4459C153.632 45.0965 153.972 45.3073 155.249 45.3073V45.9097L152.167 46.0362V44.4459H152.125C151.368 45.5001 150.593 46.1688 148.891 46.1688C147.039 46.1688 145.652 45.5001 145.652 43.3374V37.2893C145.652 36.6507 145.307 36.4278 143.957 36.4278V35.8374L147.123 35.7109V43.4941C147.123 44.8615 147.868 45.5724 149.152 45.5724C150.956 45.5724 152.161 44.1145 152.161 41.7049V37.2953C152.161 36.6567 151.822 36.4338 150.454 36.4338V35.8435L153.626 35.717V44.4579L153.632 44.4459Z" fill="#221E1E"/>
<path d="M161.044 35.572V36.1684H157.817V43.7828C157.817 45.1142 158.465 45.566 159.209 45.566C159.833 45.566 160.778 45.0961 160.778 43.3973V42.4756H161.383V43.2527C161.383 44.9696 160.584 46.1744 158.822 46.1744C157.254 46.1744 156.345 45.3069 156.345 43.6865V36.1744H154.753V35.578C156.563 35.578 157.072 33.825 157.205 32.3672H157.811V35.578H161.038L161.044 35.572Z" fill="#221E1E"/>
<path d="M170.084 45.9159V38.9641C170.084 37.8497 170.084 36.175 168.098 36.175C166.409 36.175 165.04 37.8135 165.04 40.6388V44.4521C165.04 45.1027 165.385 45.3135 166.76 45.3135V45.9159H161.74V45.3135C163.23 45.3135 163.581 45.1027 163.581 44.4521V32.7111C163.581 32.0665 163.23 31.8557 161.873 31.8557V31.2473L165.04 31.1689V37.5906H165.083C165.839 36.2412 166.766 35.5786 168.449 35.5786C170.344 35.5786 171.549 36.5003 171.549 38.7533V44.4582C171.549 45.1088 171.809 45.3195 173.22 45.3195V45.922H170.084V45.9159Z" fill="#221E1E"/>
<path d="M173.111 40.8735C173.111 38.1927 174.855 35.5723 177.786 35.5723C180.716 35.5723 182.46 38.1867 182.46 40.8735C182.46 43.5602 180.728 46.1747 177.786 46.1747C174.843 46.1747 173.111 43.5482 173.111 40.8735ZM180.819 40.8735C180.819 37.8494 179.869 36.1747 177.78 36.1747C175.691 36.1747 174.74 37.8494 174.74 40.8735C174.74 43.8976 175.691 45.5723 177.78 45.5723C179.869 45.5723 180.819 43.9036 180.819 40.8735Z" fill="#221E1E"/>
<path d="M183.962 37.289C183.962 36.6504 183.611 36.4275 182.254 36.4275V35.8372L185.427 35.7107V38.2829H185.47C185.966 37.042 186.735 35.5781 188.291 35.5781C189.157 35.5781 189.95 36.1022 189.95 37.054C189.95 37.7046 189.538 38.1022 188.957 38.1022C188.376 38.1022 187.97 37.789 187.97 37.1444C187.97 36.7649 188.14 36.4576 188.485 36.2829C188.418 36.1986 188.291 36.1745 188.164 36.1745C187.601 36.1745 186.287 36.8191 185.724 39.289C185.427 40.6384 185.427 42.6323 185.427 44.0239C185.427 45.1022 185.766 45.3131 187.365 45.3131V45.9155H182.236V45.3131C183.617 45.3131 183.962 45.1022 183.962 44.4516V37.295V37.289Z" fill="#221E1E"/>
<path d="M195.538 45.9153H190.452V45.3129C191.966 45.3129 192.311 45.1021 192.311 44.4515V37.2948C192.311 36.6563 191.972 36.4334 190.616 36.4334V35.843L193.783 35.7165V44.4575C193.783 45.1081 194.116 45.3189 195.538 45.3189V45.9213V45.9153ZM193.91 32.337C193.91 32.9213 193.45 33.3491 192.874 33.3491C192.299 33.3491 191.839 32.9153 191.839 32.337C191.839 31.7587 192.287 31.2888 192.874 31.2888C193.425 31.2888 193.91 31.7406 193.91 32.337Z" fill="#221E1E"/>
<path d="M201.412 35.6863V36.2827H198.173V43.8972C198.173 45.2285 198.82 45.6803 199.571 45.6803C200.201 45.6803 201.151 45.2104 201.151 43.5116V42.59H201.757V43.3671C201.757 45.0839 200.958 46.2888 199.19 46.2888C197.622 46.2888 196.719 45.4213 196.719 43.8008V36.2948H195.121V35.6984C196.919 35.6984 197.44 33.9454 197.573 32.4875H198.173V35.6984H201.412V35.6863Z" fill="#221E1E"/>
<path d="M201.224 35.6927H206.074V36.2891C204.506 36.2891 204.33 36.4819 204.33 36.7951C204.33 37.3252 205.577 40.1927 207 43.6807H207.049C208.471 40.0542 209.592 37.6987 209.592 36.9638C209.592 36.4758 209.259 36.2831 207.993 36.2831V35.6867H212.08V36.2831C210.978 36.2831 210.639 36.4999 210.227 37.4999L206.994 45.5361C205.807 48.4999 205.093 49.3975 203.488 49.3975C202.386 49.3975 201.442 48.6505 201.442 47.6807C201.442 47.006 201.932 46.5301 202.532 46.5301C203.058 46.5301 203.488 46.8915 203.488 47.3614C203.488 48.006 203.125 48.3674 202.471 48.4096C202.616 48.6505 203.034 48.7951 203.591 48.7951C204.826 48.7951 205.704 47.506 206.237 45.4999L202.877 37.0903C202.61 36.4277 202.078 36.2771 201.218 36.2771V35.6807L201.224 35.6927Z" fill="#221E1E"/>
<path d="M253.652 32.7045L236.771 49.4997L236.79 0.0117188L253.652 32.7045Z" fill="url(#paint0_linear_56_943)"/>
<path d="M269.668 16.7952L286.537 0L236.79 0.0120485L269.668 16.7952Z" fill="#8CD1F4"/>
<path d="M253.652 32.7051L236.771 49.5003H286.542L253.652 32.7051Z" fill="#036AAB"/>
<path d="M269.65 16.8009L286.531 0.0117188L286.543 49.4997L269.65 16.8009Z" fill="url(#paint1_linear_56_943)"/>
</g>
<defs>
<linearGradient id="paint0_linear_56_943" x1="226.678" y1="5.17437" x2="243.411" y2="37.9364" gradientUnits="userSpaceOnUse">
<stop stop-color="#A8A9AC"/>
<stop offset="1" stop-color="#FAFAFA"/>
</linearGradient>
<linearGradient id="paint1_linear_56_943" x1="296.636" y1="44.3491" x2="279.897" y2="11.569" gradientUnits="userSpaceOnUse">
<stop stop-color="#A8A9AC"/>
<stop offset="1" stop-color="#FAFAFA"/>
</linearGradient>
<clipPath id="clip0_56_943">
<rect width="287" height="50" fill="white"/>
</clipPath>
</defs>
</svg>
