<svg width="23" height="22" viewBox="0 0 23 22" fill="none" xmlns="http://www.w3.org/2000/svg">
    <path
        d="M10.836 20.6135C11.1687 20.6135 11.5042 20.5331 11.8156 20.3708C15.4016 18.5112 17.449 15.7495 18.3503 14.2693C20.3475 10.9885 20.7669 7.7559 20.7676 5.62259C20.7676 4.90346 20.3977 4.24759 19.7776 3.86946L18.0691 2.82996C17.8381 2.68829 17.5813 2.59394 17.3135 2.5524C17.0457 2.51086 16.7723 2.52294 16.5092 2.58796C15.9743 2.7179 15.5213 3.04859 15.2353 3.51952L14.1628 5.2809C13.879 5.74839 13.7922 6.30936 13.9215 6.84075C14.0507 7.37214 14.3855 7.83057 14.8523 8.11546L15.7371 8.65377C16.0025 8.81534 16.1318 9.13984 16.0431 9.42446C15.4554 11.3233 14.4067 13.047 12.9906 14.4418C12.8818 14.5464 12.7411 14.6116 12.591 14.6271C12.4409 14.6425 12.29 14.6073 12.1621 14.5271L11.278 13.9888C10.8107 13.7047 10.2497 13.6178 9.71825 13.7469C9.18681 13.8761 8.72834 14.2108 8.44345 14.6776L7.37095 16.4397C7.08427 16.9106 6.99833 17.4641 7.12895 17.9996C7.19237 18.2632 7.30741 18.5115 7.46743 18.7303C7.62745 18.9491 7.82926 19.134 8.0612 19.2743L9.76895 20.3138C10.0901 20.5097 10.4597 20.6134 10.836 20.6135ZM16.9987 3.90452C17.1244 3.90446 17.2477 3.9392 17.3548 4.0049L19.0626 5.0444C19.1629 5.10399 19.246 5.18859 19.3039 5.28994C19.3617 5.39128 19.3923 5.5059 19.3926 5.62259C19.3926 7.58059 19.0076 10.5458 17.1761 13.555C16.349 14.9128 14.4708 17.4455 11.1818 19.1512C10.9521 19.2708 10.6909 19.2667 10.484 19.1395L8.7762 18.1C8.69885 18.0533 8.63149 17.9918 8.57801 17.9189C8.52453 17.8461 8.48597 17.7634 8.46457 17.6756C8.44316 17.5878 8.43933 17.4967 8.45329 17.4074C8.46724 17.3181 8.49871 17.2325 8.54589 17.1554L9.61839 15.394C9.66535 15.3168 9.72706 15.2497 9.79999 15.1963C9.87293 15.143 9.95566 15.1046 10.0435 15.0833C10.1312 15.062 10.2224 15.0581 10.3117 15.0721C10.4009 15.086 10.4866 15.1174 10.5637 15.1644L11.4485 15.7027C11.8379 15.9423 12.2962 16.0449 12.7506 15.9942C13.2051 15.9435 13.6295 15.7424 13.9565 15.4229C15.5344 13.8687 16.7029 11.9479 17.3576 9.83215C17.4905 9.39539 17.4736 8.92673 17.3095 8.50069C17.1455 8.07464 16.8437 7.71569 16.4521 7.4809L15.5673 6.94259C15.2435 6.74527 15.1404 6.32177 15.3377 5.99727L16.4095 4.2359C16.4705 4.1345 16.5569 4.0507 16.66 3.99273C16.7632 3.93475 16.8797 3.9046 16.998 3.90521L16.9987 3.90452ZM7.78208 11.5241C7.61651 10.4431 7.88645 9.34062 8.53267 8.45841C9.17889 7.5762 10.1486 6.98632 11.2292 6.81815C11.4074 6.79439 11.5879 6.84142 11.7319 6.94914C11.8759 7.05686 11.9719 7.21671 11.9994 7.39441C12.0269 7.57211 11.9837 7.75352 11.8791 7.89975C11.7744 8.04598 11.6167 8.14538 11.4396 8.17665C10.7192 8.28877 10.0728 8.68198 9.64191 9.27006C9.21106 9.85814 9.03102 10.5931 9.14127 11.3137C9.15503 11.403 9.15109 11.494 9.12966 11.5818C9.10822 11.6695 9.06972 11.7521 9.01635 11.825C8.96298 11.8978 8.89579 11.9594 8.8186 12.0063C8.74142 12.0532 8.65576 12.0844 8.56652 12.0981C8.47727 12.1119 8.38619 12.108 8.29847 12.0865C8.21074 12.0651 8.1281 12.0266 8.05526 11.9732C7.98242 11.9199 7.9208 11.8527 7.87393 11.7755C7.82706 11.6983 7.79585 11.6126 7.78208 11.5234V11.5241ZM5.06439 11.9435C4.78389 10.1285 5.22733 8.31346 6.31289 6.8319C7.39845 5.35034 8.99552 4.38096 10.8105 4.10046C10.9871 4.08043 11.1646 4.1295 11.3059 4.23741C11.4471 4.34531 11.5411 4.50368 11.5682 4.67934C11.5953 4.855 11.5534 5.03433 11.4513 5.17978C11.3491 5.32523 11.1946 5.42552 11.0202 5.45965C9.5682 5.68377 8.29083 6.45996 7.42252 7.64521C6.5542 8.83046 6.19945 10.2825 6.42358 11.7345C6.44361 11.9111 6.39454 12.0886 6.28663 12.2298C6.17873 12.371 6.02036 12.4651 5.8447 12.4922C5.66904 12.5193 5.48971 12.4773 5.34426 12.3752C5.1988 12.273 5.09852 12.1186 5.06439 11.9441V11.9435ZM2.3467 12.3628C1.53683 7.1179 5.14552 2.19265 10.3911 1.38277C10.5713 1.35549 10.7549 1.40063 10.9019 1.50833C11.0489 1.61602 11.1473 1.77752 11.1756 1.95752C11.2333 2.33221 10.9762 2.68352 10.6008 2.74196C6.10527 3.43565 3.0122 7.65759 3.70589 12.1538C3.72592 12.3304 3.67685 12.508 3.56894 12.6492C3.46104 12.7904 3.30268 12.8844 3.12702 12.9115C2.95135 12.9386 2.77202 12.8967 2.62657 12.7946C2.48112 12.6924 2.38083 12.5373 2.3467 12.3628Z"
        fill="#2854DB" />
</svg>