<svg width="26" height="26" viewBox="0 0 26 26" fill="none" xmlns="http://www.w3.org/2000/svg">
<path d="M13.7059 1H14.0913C18.6936 1 20.9976 1 22.5958 1.9576C23.0532 2.2312 23.4598 2.5576 23.8028 2.9236C25 4.2028 25 6.0436 25 9.7276V12.7816C25 16.3372 25 18.1156 24.3379 19.5352C23.2734 21.8188 21.0231 23.6188 18.1685 24.4708C16.3939 25 14.1732 25 9.72612 25C7.18776 25 5.91718 25 4.90353 24.6976C3.27294 24.2104 1.98682 23.182 1.37835 21.8776C1 21.0664 1 20.05 1 18.0184V13" stroke="white" stroke-width="1.5" stroke-linecap="round" stroke-linejoin="round"/>
<path d="M24.9994 13C24.9994 14.0608 24.5036 15.0781 23.6212 15.8281C22.7387 16.5782 21.5419 16.9996 20.294 16.9996C19.3537 16.9996 18.2455 16.8604 17.3321 17.068C16.9331 17.1592 16.5694 17.3379 16.2772 17.5862C15.9851 17.8345 15.7749 18.1437 15.6676 18.4828C15.4234 19.2592 15.5871 20.2012 15.5871 21.0004C15.5871 21.5256 15.4654 22.0457 15.229 22.531C14.9925 23.0162 14.6459 23.4571 14.2089 23.8285C13.772 24.1999 13.2533 24.4946 12.6824 24.6955C12.1115 24.8965 11.4996 25 10.8817 25M2.41113 7.6C3.10572 8.2072 4.95231 10.6 5.94054 10.6M5.94054 10.6C6.92878 10.6 8.77537 8.2072 9.46996 7.6M5.94054 10.6V1" stroke="white" stroke-width="1.5" stroke-linecap="round" stroke-linejoin="round"/>
</svg>
