<svg width="28" height="28" viewBox="0 0 28 28" fill="none" xmlns="http://www.w3.org/2000/svg">
  <path
    d="M25.375 16.6255V23.8443C25.375 24.0183 25.3059 24.1853 25.1828 24.3083C25.0598 24.4314 24.8928 24.5005 24.7188 24.5005H17.5C15.8712 24.5009 14.2823 23.9963 12.9523 23.056C11.6222 22.1158 10.6164 20.7862 10.0735 19.2505H10.5C12.5886 19.2505 14.5917 18.4209 16.0685 16.944C17.5454 15.4672 18.375 13.4641 18.375 11.3755C18.3756 10.486 18.2251 9.60282 17.9299 8.76367C19.9408 8.8736 21.8332 9.74978 23.218 11.2121C24.6028 12.6744 25.3747 14.6116 25.375 16.6255Z"
    fill="black"
    fill-opacity="0.04"
  />
  <path
    d="M18.5467 7.93999C17.7548 6.08603 16.3471 4.56239 14.5614 3.62665C12.7757 2.6909 10.7217 2.40047 8.74664 2.80444C6.77154 3.20841 4.99652 4.28201 3.72167 5.84372C2.44682 7.40544 1.75035 9.35947 1.75 11.3755V18.5942C1.75 19.0003 1.91133 19.3898 2.19849 19.677C2.48566 19.9641 2.87514 20.1255 3.28125 20.1255H9.47953C10.1623 21.6848 11.2844 23.0115 12.7086 23.9438C14.1329 24.8761 15.7978 25.3736 17.5 25.3755H24.7188C25.1249 25.3755 25.5143 25.2141 25.8015 24.927C26.0887 24.6398 26.25 24.2503 26.25 23.8442V16.6255C26.2496 14.4864 25.4656 12.4215 24.0462 10.8212C22.6269 9.22085 20.6704 8.19588 18.5467 7.93999ZM3.5 11.3755C3.5 9.99099 3.91054 8.63761 4.67971 7.48647C5.44888 6.33532 6.54213 5.43811 7.82122 4.9083C9.1003 4.37849 10.5078 4.23986 11.8656 4.50996C13.2235 4.78006 14.4708 5.44674 15.4497 6.42571C16.4287 7.40468 17.0954 8.65196 17.3655 10.0098C17.6356 11.3677 17.497 12.7752 16.9672 14.0542C16.4373 15.3333 15.5401 16.4266 14.389 17.1957C13.2378 17.9649 11.8845 18.3755 10.5 18.3755H3.5V11.3755ZM24.5 23.6255H17.5C16.2622 23.624 15.0468 23.2952 13.9773 22.6722C12.9077 22.0492 12.0219 21.1544 11.41 20.0784C12.6084 19.9541 13.7682 19.5833 14.8166 18.9895C15.865 18.3956 16.7792 17.5914 17.5021 16.6275C18.2249 15.6635 18.7407 14.5605 19.017 13.3877C19.2933 12.215 19.3242 10.9978 19.1078 9.81249C20.6426 10.1747 22.0102 11.0446 22.9889 12.2811C23.9676 13.5177 24.5 15.0485 24.5 16.6255V23.6255Z"
    fill="#2854DB"
  />
</svg>

