<svg width="21" height="20" viewBox="0 0 21 20" fill="none" xmlns="http://www.w3.org/2000/svg">
<path d="M14.6085 7.38681C12.6748 6.30524 9.5711 4.5685 4.75703 1.87299C4.43246 1.65864 4.05904 1.63055 3.73639 1.73975L11.996 9.99935L14.6085 7.38681Z" fill="#32BBFF"/>
<path d="M3.73634 1.73975C3.67586 1.76023 3.61702 1.78494 3.56074 1.81478C3.20444 2.00751 2.94263 2.37837 2.94263 2.84742V17.1513C2.94263 17.6203 3.20441 17.9912 3.56074 18.1839C3.61692 18.2137 3.67573 18.2385 3.73614 18.2591L11.9959 9.99935L3.73634 1.73975Z" fill="#32BBFF"/>
<path d="M11.996 9.99936L3.73621 18.2591C4.05895 18.3691 4.43238 18.3432 4.75704 18.1257C9.42566 15.5115 12.4944 13.7953 14.4505 12.7045C14.5049 12.6739 14.5583 12.644 14.611 12.6144L11.996 9.99936Z" fill="#32BBFF"/>
<path d="M2.94263 9.99936V17.1513C2.94263 17.6203 3.20441 17.9912 3.56074 18.1839C3.61692 18.2137 3.67573 18.2385 3.73614 18.2591L11.9959 9.99936H2.94263Z" fill="#2C9FD9"/>
<path d="M4.75703 1.87298C4.3716 1.61848 3.91709 1.62573 3.56079 1.81482L11.8706 10.1247L14.6085 7.3868C12.6748 6.30524 9.5711 4.56849 4.75703 1.87298Z" fill="#29CC5E"/>
<path d="M11.8707 9.87405L3.56079 18.1839C3.91712 18.3729 4.3716 18.3839 4.75703 18.1257C9.42564 15.5115 12.4944 13.7953 14.4505 12.7045C14.5049 12.6739 14.5583 12.644 14.611 12.6144L11.8707 9.87405Z" fill="#D93F21"/>
<path d="M18.0574 9.99938C18.0574 9.60306 17.8574 9.2031 17.461 8.9813C17.461 8.9813 16.7198 8.56772 14.4478 7.29691L11.7453 9.99938L14.4504 12.7045C16.6975 11.4428 17.461 11.0174 17.461 11.0174C17.8574 10.7957 18.0574 10.3957 18.0574 9.99938Z" fill="#FFD500"/>
<path d="M17.461 11.0174C17.8574 10.7956 18.0574 10.3957 18.0574 9.99936H11.7453L14.4504 12.7045C16.6975 11.4428 17.461 11.0174 17.461 11.0174Z" fill="#FFAA00"/>
</svg>
