<svg width="25" height="24" viewBox="0 0 25 24" fill="none" xmlns="http://www.w3.org/2000/svg">
    <path
        d="M10.5001 18H14.5001M2.85105 13.214C2.49805 10.916 2.32105 9.768 2.75605 8.749C3.19005 7.731 4.15405 7.034 6.08105 5.641L7.52105 4.6C9.91805 2.867 11.1171 2 12.5001 2C13.8831 2 15.0821 2.867 17.4791 4.6L18.9191 5.641C20.8461 7.034 21.8091 7.731 22.2441 8.749C22.6781 9.768 22.5021 10.916 22.1491 13.213L21.8481 15.173C21.3481 18.429 21.0971 20.057 19.9291 21.029C18.7611 22.001 17.0541 22 13.6391 22H11.3601C7.94505 22 6.23805 22 5.07005 21.029C3.90205 20.057 3.65205 18.429 3.15105 15.172L2.85105 13.214Z"
        stroke="#2854DB" stroke-width="2" stroke-linecap="round" stroke-linejoin="round" />
</svg>
