<svg width="18" height="19" viewBox="0 0 18 19" fill="none" xmlns="http://www.w3.org/2000/svg">
<path d="M9.25 5.08594C11.7109 5.08594 13.7422 7.11719 13.7422 9.57812C13.7422 12.0781 11.7109 14.0703 9.25 14.0703C6.75 14.0703 4.75781 12.0781 4.75781 9.57812C4.75781 7.11719 6.75 5.08594 9.25 5.08594ZM9.25 12.5078C10.8516 12.5078 12.1406 11.2188 12.1406 9.57812C12.1406 7.97656 10.8516 6.6875 9.25 6.6875C7.60938 6.6875 6.32031 7.97656 6.32031 9.57812C6.32031 11.2188 7.64844 12.5078 9.25 12.5078ZM14.9531 4.92969C14.9531 5.51562 14.4844 5.98438 13.8984 5.98438C13.3125 5.98438 12.8438 5.51562 12.8438 4.92969C12.8438 4.34375 13.3125 3.875 13.8984 3.875C14.4844 3.875 14.9531 4.34375 14.9531 4.92969ZM17.9219 5.98438C18 7.42969 18 11.7656 17.9219 13.2109C17.8438 14.6172 17.5312 15.8281 16.5156 16.8828C15.5 17.8984 14.25 18.2109 12.8438 18.2891C11.3984 18.3672 7.0625 18.3672 5.61719 18.2891C4.21094 18.2109 3 17.8984 1.94531 16.8828C0.929688 15.8281 0.617188 14.6172 0.539062 13.2109C0.460938 11.7656 0.460938 7.42969 0.539062 5.98438C0.617188 4.57812 0.929688 3.32812 1.94531 2.3125C3 1.29688 4.21094 0.984375 5.61719 0.90625C7.0625 0.828125 11.3984 0.828125 12.8438 0.90625C14.25 0.984375 15.5 1.29688 16.5156 2.3125C17.5312 3.32812 17.8438 4.57812 17.9219 5.98438ZM16.0469 14.7344C16.5156 13.6016 16.3984 10.8672 16.3984 9.57812C16.3984 8.32812 16.5156 5.59375 16.0469 4.42188C15.7344 3.67969 15.1484 3.05469 14.4062 2.78125C13.2344 2.3125 10.5 2.42969 9.25 2.42969C7.96094 2.42969 5.22656 2.3125 4.09375 2.78125C3.3125 3.09375 2.72656 3.67969 2.41406 4.42188C1.94531 5.59375 2.0625 8.32812 2.0625 9.57812C2.0625 10.8672 1.94531 13.6016 2.41406 14.7344C2.72656 15.5156 3.3125 16.1016 4.09375 16.4141C5.22656 16.8828 7.96094 16.7656 9.25 16.7656C10.5 16.7656 13.2344 16.8828 14.4062 16.4141C15.1484 16.1016 15.7734 15.5156 16.0469 14.7344Z" fill="#2854DB"/>
</svg>
