<svg width="24" height="24" viewBox="0 0 24 24" fill="none" xmlns="http://www.w3.org/2000/svg">
<path d="M20.5 12.5V19.5C20.5 20.443 20.5 20.914 20.207 21.207C19.914 21.5 19.443 21.5 18.5 21.5C17.557 21.5 17.086 21.5 16.793 21.207C16.5 20.914 16.5 20.443 16.5 19.5V12.5M17.438 9.167V3.833M19 3.833V2.5M19 10.5V9.167M17.438 6.5H20.563M20.563 6.5C21.08 6.5 21.5 6.948 21.5 7.5V8.167C21.5 8.719 21.08 9.167 20.563 9.167H16.5M20.563 6.5C21.08 6.5 21.5 6.052 21.5 5.5V4.833C21.5 4.281 21.08 3.833 20.563 3.833H16.5M13.5 19.5V11.5C13.5 10.557 13.5 10.086 13.207 9.793C12.914 9.5 12.443 9.5 11.5 9.5C10.557 9.5 10.086 9.5 9.793 9.793C9.5 10.086 9.5 10.557 9.5 11.5V19.5C9.5 20.443 9.5 20.914 9.793 21.207C10.086 21.5 10.557 21.5 11.5 21.5C12.443 21.5 12.914 21.5 13.207 21.207C13.5 20.914 13.5 20.443 13.5 19.5ZM6.5 19.5V14.5C6.5 13.557 6.5 13.086 6.207 12.793C5.914 12.5 5.443 12.5 4.5 12.5C3.557 12.5 3.086 12.5 2.793 12.793C2.5 13.086 2.5 13.557 2.5 14.5V19.5C2.5 20.443 2.5 20.914 2.793 21.207C3.086 21.5 3.557 21.5 4.5 21.5C5.443 21.5 5.914 21.5 6.207 21.207C6.5 20.914 6.5 20.443 6.5 19.5Z" stroke="white" stroke-width="1.5" stroke-linecap="round" stroke-linejoin="round"/>
</svg>
