<svg width="16" height="16" viewBox="0 0 16 16" fill="none" xmlns="http://www.w3.org/2000/svg">
<rect width="16" height="16" fill="white"/>
<path d="M14.1929 11.8373C14.8792 10.7191 15.2417 9.43232 15.2399 8.1203C15.2417 6.80823 14.8793 5.52125 14.1929 4.40302L14.189 4.39678C13.5523 3.3589 12.66 2.50165 11.5974 1.90696C10.5349 1.31227 9.33757 1 8.11992 1C6.90227 1 5.70496 1.31227 4.64241 1.90696C3.57986 2.50165 2.68757 3.3589 2.0508 4.39678L2.04696 4.40302C1.36231 5.522 1 6.80833 1 8.12014C1 9.43196 1.36231 10.7183 2.04696 11.8373L2.05096 11.8437C2.68775 12.8815 3.58005 13.7387 4.64259 14.3334C5.70514 14.928 6.90242 15.2402 8.12005 15.2402C9.33767 15.2402 10.535 14.9279 11.5975 14.3333C12.66 13.7386 13.5523 12.8814 14.189 11.8435L14.1929 11.8373ZM9.03 14.0198C8.8943 14.1508 8.73811 14.2586 8.5676 14.3392C8.42769 14.4057 8.27474 14.4401 8.11984 14.4401C7.96495 14.4401 7.81199 14.4057 7.67208 14.3392C7.34769 14.1735 7.07 13.9291 6.8644 13.6285C6.44454 13.0217 6.13339 12.3465 5.94488 11.6331C6.66915 11.5885 7.39416 11.5658 8.11992 11.5649C8.84536 11.5649 9.57043 11.5877 10.2951 11.6331C10.1908 11.9999 10.0604 12.3588 9.90504 12.707C9.70047 13.1968 9.40336 13.6425 9.03 14.0198ZM1.81384 8.52014H4.68568C4.7044 9.32148 4.79127 10.1198 4.94536 10.9064C4.1603 10.9755 3.37726 11.0704 2.59624 11.1912C2.13884 10.3706 1.87147 9.45782 1.81384 8.52014ZM2.59624 5.04926C3.37694 5.17022 4.16024 5.26516 4.94616 5.33406C4.7918 6.12058 4.70477 6.91883 4.686 7.72014H1.81384C1.87149 6.78252 2.13887 5.86979 2.59624 5.04926ZM7.20984 2.22046C7.34554 2.08951 7.50173 1.98164 7.67224 1.9011C7.81215 1.83463 7.96511 1.80014 8.12 1.80014C8.2749 1.80014 8.42785 1.83463 8.56776 1.9011C8.89215 2.06679 9.16984 2.31114 9.37544 2.61182C9.79531 3.2186 10.1065 3.89378 10.295 4.60718C9.5707 4.65177 8.84568 4.67449 8.11992 4.67534C7.39448 4.67534 6.66942 4.65262 5.94472 4.60718C6.04909 4.2404 6.17944 3.88152 6.3348 3.53326C6.53938 3.04348 6.83648 2.59774 7.20984 2.22046ZM14.426 7.72014H11.5542C11.5354 6.9188 11.4486 6.12051 11.2945 5.3339C12.0795 5.26478 12.8626 5.16985 13.6436 5.0491C14.101 5.86968 14.3684 6.78246 14.426 7.72014ZM5.75 10.8441C5.59357 10.0788 5.50523 9.30108 5.486 8.52014H10.754C10.735 9.30112 10.6468 10.0789 10.4905 10.8443C9.70115 10.7925 8.91096 10.766 8.11992 10.7649C7.32952 10.7649 6.53955 10.7913 5.75 10.8441ZM10.4898 5.39614C10.6463 6.1615 10.7346 6.9392 10.7538 7.72014H5.486C5.50505 6.93916 5.59323 6.1614 5.74952 5.39598C6.53886 5.44782 7.32904 5.47428 8.12008 5.47534C8.91048 5.47534 9.70046 5.44889 10.49 5.39598L10.4898 5.39614ZM11.5538 8.52014H14.426C14.3684 9.45777 14.101 10.3705 13.6436 11.191C12.8628 11.0701 12.0795 10.9751 11.2937 10.9062C11.448 10.1197 11.5351 9.32145 11.5538 8.52014ZM13.1639 4.31294C12.4813 4.41139 11.7966 4.48937 11.11 4.54686C10.9866 4.08735 10.8275 3.63819 10.634 3.2035C10.4574 2.80351 10.2351 2.42527 9.9716 2.0763C11.2448 2.46681 12.3621 3.24961 13.1639 4.31294ZM3.65112 3.65118C4.38151 2.92009 5.28009 2.37933 6.26808 2.0763C6.25304 2.09582 6.23768 2.11438 6.22296 2.13406C5.71512 2.86509 5.3452 3.6828 5.13144 4.54686C4.44472 4.48873 3.7596 4.41075 3.07608 4.31294C3.25234 4.07941 3.44448 3.8583 3.65112 3.65118ZM3.07608 11.9273C3.75864 11.8289 4.44328 11.7509 5.13 11.6934C5.2534 12.1529 5.41255 12.6021 5.606 13.0368C5.78266 13.4368 6.00493 13.815 6.2684 14.164C4.99518 13.7735 3.8779 12.9907 3.07608 11.9273ZM12.589 12.5891C11.8587 13.3202 10.9601 13.861 9.97208 14.164C9.98712 14.1445 10.0025 14.1259 10.0172 14.1062C10.525 13.3752 10.895 12.5575 11.1087 11.6934C11.7954 11.7516 12.4806 11.8295 13.1641 11.9273C12.9878 12.1609 12.7957 12.382 12.589 12.5891Z" fill="#1A1A1A"/>
</svg>
