<svg width="11" height="15" viewBox="0 0 11 15" fill="none" xmlns="http://www.w3.org/2000/svg">
<path d="M5.20312 14.4766C1.21094 8.73438 0.5 8.13281 0.5 6C0.5 3.10156 2.82422 0.75 5.75 0.75C8.64844 0.75 11 3.10156 11 6C11 8.13281 10.2617 8.73438 6.26953 14.4766C6.02344 14.8594 5.44922 14.8594 5.20312 14.4766ZM5.75 8.1875C6.95312 8.1875 7.9375 7.23047 7.9375 6C7.9375 4.79688 6.95312 3.8125 5.75 3.8125C4.51953 3.8125 3.5625 4.79688 3.5625 6C3.5625 7.23047 4.51953 8.1875 5.75 8.1875Z" fill="#2854DB"/>
</svg>
