<svg width="20" height="24" viewBox="0 0 20 24" fill="none" xmlns="http://www.w3.org/2000/svg">
<path d="M18.9158 11.3408C18.691 11.3408 18.4654 11.2558 18.0508 11.2281C16.6219 8.80888 13.9896 7.18508 10.9764 7.18508C9.65584 7.18508 8.40924 7.49858 7.30403 8.05227C5.41876 6.31349 3.24423 7.29055 3.24423 7.29055L4.45346 10.4107C3.94515 11.0743 3.53574 11.8184 3.24789 12.6197C2.50595 12.7105 1.73176 12.7955 1.29376 12.8181C0.998588 12.835 0.422916 13.1998 0.451463 13.7886C0.515916 15.1494 1.17803 17.7408 1.9427 18.0074C2.31109 18.1363 2.83112 18.3047 3.36212 18.4717C3.55623 18.9493 3.79281 19.4063 4.0689 19.834L6.24934 24H9.11167L8.98421 22.5322H13.5487V24H16.3392L18.5943 18.4629C18.6068 18.4321 18.6192 18.4013 18.6317 18.3706L18.773 18.0249L18.754 18.0307C19.0345 17.2046 19.1876 16.3183 19.1876 15.3955C19.1876 14.5166 19.0477 13.6699 18.7921 12.8759C18.8755 12.7925 18.984 12.7016 19.1305 12.6079C19.8819 12.1245 19.5062 11.3408 18.9158 11.3408ZM5.5396 12.6277C5.5396 12.3267 5.78425 12.082 6.08598 12.082C6.38771 12.082 6.63235 12.3267 6.63235 12.6277C6.63235 12.9302 6.38771 13.1748 6.08598 13.1748C5.78425 13.1748 5.5396 12.9302 5.5396 12.6277ZM7.2901 17.5203C6.50054 17.5203 5.85967 16.8801 5.85967 16.0898C5.85967 15.3003 6.50054 14.6601 7.2901 14.6601C8.08037 14.6601 8.72054 15.3003 8.72054 16.0898C8.72054 16.8801 8.08037 17.5203 7.2901 17.5203Z" fill="#1A74E8"/>
<path d="M10.9765 6.24464C12.1271 6.24464 13.2521 6.46439 14.298 6.87455C15.2347 6.18019 15.8456 5.06986 15.8456 3.813C15.8456 1.70728 14.1376 0 12.0318 0C9.92537 0 8.21814 1.70728 8.21814 3.813C8.21814 4.81791 8.60927 5.72902 9.24428 6.4087C9.81044 6.30028 10.3883 6.24464 10.9765 6.24464Z" fill="#1A74E8"/>
</svg>
