<svg width="14" height="14" viewBox="0 0 14 14" fill="none" xmlns="http://www.w3.org/2000/svg">
<path d="M4.4175 13.9954C4.6651 14.0156 4.91415 13.9819 5.14742 13.8964C5.38068 13.8109 5.5926 13.6758 5.7685 13.5004C6.079 13.3754 7.817 9.07285 8.017 8.72735L4.6935 5.40385C4.6469 5.35753 4.60993 5.30245 4.5847 5.24178C4.55947 5.18111 4.54648 5.11606 4.54648 5.05035C4.54648 4.98465 4.55947 4.91959 4.5847 4.85893C4.60993 4.79826 4.6469 4.74318 4.6935 4.69685C4.73958 4.64984 4.79458 4.61248 4.85528 4.58699C4.91598 4.56149 4.98116 4.54835 5.047 4.54835C5.11283 4.54835 5.17801 4.56149 5.23871 4.58699C5.29941 4.61248 5.35441 4.64984 5.4005 4.69685L8.724 8.02035L12.974 6.13235C13.3022 5.98923 13.5773 5.74678 13.7606 5.43914C13.9438 5.13149 14.026 4.77414 13.9955 4.41735C13.9691 4.06092 13.8318 3.72168 13.6029 3.44721C13.374 3.17274 13.0649 2.97679 12.719 2.88685L2.176 0.0583521C1.88247 -0.0210991 1.57315 -0.0214079 1.27947 0.057457C0.985788 0.136322 0.718229 0.291548 0.503996 0.507352C0.289144 0.721543 0.134766 0.988751 0.0565252 1.28187C-0.0217152 1.57499 -0.0210352 1.88358 0.0584965 2.17635L2.887 12.7189C2.97694 13.0648 3.17288 13.3738 3.44736 13.6028C3.72183 13.8317 4.06106 13.969 4.4175 13.9954Z" fill="white"/>
</svg>
