<svg width="289" height="58" viewBox="0 0 289 58" fill="none" xmlns="http://www.w3.org/2000/svg">
<path d="M4.98591 7.11161L3.72714 8.35446L2.46837 7.11161L3.72714 5.86875L4.98591 7.11161ZM7.72763 7.11161L6.46885 8.35446L5.19283 7.11161L6.46885 5.86875L7.72763 7.11161ZM10.5728 16.7438C10.6878 16.7438 10.7452 16.7955 10.7452 16.8991V18.1247C10.7452 18.2398 10.6878 18.2973 10.5728 18.2973C9.51516 18.2973 8.73348 18.0499 8.22769 17.5551C7.06659 18.1535 6.02627 18.4527 5.10662 18.4527C3.94556 18.4527 2.99143 18.0557 2.2442 17.2616C1.50849 16.4676 1.14062 15.4836 1.14062 14.3098C1.14062 13.113 1.51424 12.0946 2.26145 11.2545C3.00867 10.4144 3.95706 9.99435 5.10662 9.99435C5.80785 9.99435 6.57806 10.1554 7.41725 10.4777V9.40744L8.8657 9.16577L8.88294 14.8104C8.88294 15.5009 9.0151 15.9958 9.27954 16.2949C9.54392 16.5941 9.975 16.7438 10.5728 16.7438ZM5.10662 16.9682C5.87682 16.9797 6.70451 16.784 7.58968 16.3812C7.4747 15.99 7.41725 15.5124 7.41725 14.9485V11.9449C6.48609 11.6342 5.73313 11.4789 5.15835 11.4789C4.38814 11.4789 3.75588 11.7493 3.26157 12.2902C2.77875 12.831 2.53734 13.4985 2.53734 14.2926C2.53734 15.0521 2.77301 15.685 3.24432 16.1914C3.72714 16.6977 4.3479 16.9566 5.10662 16.9682ZM17.0565 16.7438C17.1714 16.7438 17.2289 16.7955 17.2289 16.8991V18.1247C17.2289 18.2398 17.1714 18.2973 17.0565 18.2973C15.9874 18.2973 14.9987 17.8773 14.0906 17.0372C13.4698 17.8773 12.2971 18.2973 10.5728 18.2973C10.4578 18.2973 10.4005 18.2398 10.4005 18.1247L10.4177 16.8991C10.4177 16.7955 10.4752 16.7438 10.5902 16.7438C11.5098 16.7438 12.1766 16.5769 12.5904 16.2432C13.0157 15.8979 13.2284 15.3455 13.2284 14.586V11.7896L14.6769 11.5652V14.983C14.6769 15.2708 14.6481 15.5699 14.5907 15.8807C15.3608 16.456 16.1828 16.7438 17.0565 16.7438ZM11.142 20.9039L12.4007 19.661L13.6595 20.9039L12.4007 22.1467L11.142 20.9039ZM13.8664 20.9039L15.1424 19.661L16.4012 20.9039L15.1424 22.1467L13.8664 20.9039ZM21.7635 9.9253C22.8671 9.9253 23.7925 10.3051 24.5397 11.0646C25.2869 11.8126 25.6605 12.7505 25.6605 13.8783C25.6605 15.2592 25.2294 16.341 24.3673 17.1235C23.5166 17.906 22.3383 18.2973 20.8324 18.2973H17.0565C16.9415 18.2973 16.8836 18.2398 16.8836 18.1247V16.8991C16.8836 16.7955 16.9415 16.7438 17.0565 16.7438H18.539C18.0217 15.6735 17.763 14.7414 17.763 13.9473C17.763 12.785 18.1367 11.8241 18.8839 11.0646C19.6426 10.3051 20.6025 9.9253 21.7635 9.9253ZM20.9531 16.7438C21.9417 16.7438 22.7291 16.4964 23.3154 16.0015C23.9017 15.5066 24.1948 14.8161 24.1948 13.9301C24.1948 13.1935 23.9534 12.5894 23.4706 12.1176C22.9993 11.6342 22.4015 11.3926 21.6773 11.3926C20.9876 11.3926 20.4013 11.6515 19.9185 12.1693C19.4356 12.6757 19.1942 13.2741 19.1942 13.9646C19.1942 14.7932 19.4817 15.7196 20.0564 16.7438H20.9531ZM38.5068 16.8991L38.524 18.1247C38.524 18.2398 38.4665 18.2973 38.3516 18.2973C37.1216 18.2973 36.1961 17.9981 35.5754 17.3997C35.0351 17.6644 34.3396 17.883 33.4889 18.0557C32.6497 18.2167 31.8968 18.2973 31.23 18.2973H26.9709L26.695 16.7438H30.7817L29.0573 8.31994L30.5058 7.95744L32.1439 16.7092C33.1211 16.6402 34.0464 16.4848 34.9201 16.2432C34.7937 15.8059 34.7304 15.3398 34.7304 14.8449L34.7132 5.92054L36.1789 5.69613V14.4997C36.1789 15.9958 36.8974 16.7438 38.3343 16.7438C38.4493 16.7438 38.5068 16.7955 38.5068 16.8991ZM51.1352 9.94256L52.5836 9.70089V14.9658C52.5836 16.0245 52.2962 16.8416 51.7214 17.417C51.1466 17.9923 50.296 18.2801 49.1694 18.2801C48.2497 18.2801 47.2899 17.9751 46.2898 17.3652C45.6804 17.9751 44.8068 18.2801 43.6687 18.2801C42.8411 18.2801 41.9846 17.9809 41.0995 17.3824C40.4672 17.9923 39.5533 18.2973 38.3578 18.2973C38.2428 18.2973 38.1853 18.2398 38.1853 18.1247V16.8991C38.1853 16.7955 38.2428 16.7438 38.3578 16.7438C39.8062 16.7438 40.5304 16.0245 40.5304 14.586L40.5132 11.7896L41.9789 11.5652V14.983C41.9789 15.4664 41.9099 15.9094 41.772 16.3122C42.4387 16.5884 43.0365 16.7265 43.5653 16.7265C45.0137 16.7265 45.738 16.0072 45.738 14.5687L45.7207 11.7723L47.1864 11.5479V14.9658C47.1864 15.4721 47.1116 15.9152 46.9623 16.2949C47.675 16.5827 48.3417 16.7265 48.9625 16.7265C49.6637 16.7265 50.1982 16.5481 50.5661 16.1914C50.9455 15.8231 51.1352 15.2822 51.1352 14.5687V9.94256ZM62.0466 5.92054L63.5123 5.69613V14.8449C63.5123 17.1465 62.2995 18.2973 59.8739 18.2973H59.8567H54.1663L53.8905 16.7438H57.9771L56.2528 8.31994L57.7013 7.95744L59.3566 16.7438H59.8567H59.8739C61.3224 16.7438 62.0466 15.9958 62.0466 14.4997V5.92054ZM58.3048 20.8866C58.3048 21.2203 58.4025 21.4908 58.5979 21.6979H60.8223L60.5982 22.6818H56.7011V21.6979H57.6495C57.4656 21.3987 57.3736 21.0708 57.3736 20.714C57.3736 20.2767 57.5173 19.9142 57.8047 19.6265C58.1036 19.3503 58.4772 19.2122 58.9255 19.2122C59.2819 19.2122 59.7303 19.3215 60.2705 19.5402V20.386C59.8222 20.2134 59.4544 20.1271 59.1669 20.1271C58.914 20.1271 58.7071 20.1961 58.5462 20.3342C58.3853 20.4723 58.3048 20.6565 58.3048 20.8866ZM66.4977 18.2973V5.92054L67.9634 5.69613V18.2973H66.4977ZM77.9844 7.11161L76.7256 8.35446L75.4668 7.11161L76.7256 5.86875L77.9844 7.11161ZM80.7261 7.11161L79.4673 8.35446L78.1913 7.11161L79.4673 5.86875L80.7261 7.11161ZM83.5712 16.7438C83.6864 16.7438 83.7437 16.7955 83.7437 16.8991V18.1247C83.7437 18.2398 83.6864 18.2973 83.5712 18.2973C82.5139 18.2973 81.7317 18.0499 81.2261 17.5551C80.0653 18.1535 79.0245 18.4527 78.1051 18.4527C76.9442 18.4527 75.9896 18.0557 75.2427 17.2616C74.5067 16.4676 74.1391 15.4836 74.1391 14.3098C74.1391 13.113 74.5129 12.0946 75.2599 11.2545C76.0069 10.4144 76.9553 9.99435 78.1051 9.99435C78.8065 9.99435 79.5763 10.1554 80.4157 10.4777V9.40744L81.8641 9.16577L81.8814 14.8104C81.8814 15.5009 82.0138 15.9958 82.278 16.2949C82.5422 16.5941 82.9732 16.7438 83.5712 16.7438ZM78.1051 16.9682C78.8755 16.9797 79.7032 16.784 80.5881 16.3812C80.4729 15.99 80.4157 15.5124 80.4157 14.9485V11.9449C79.4845 11.6342 78.7314 11.4789 78.1568 11.4789C77.3864 11.4789 76.7546 11.7493 76.26 12.2902C75.7772 12.831 75.5358 13.4985 75.5358 14.2926C75.5358 15.0521 75.7717 15.685 76.2428 16.1914C76.7256 16.6977 77.3464 16.9566 78.1051 16.9682ZM93.9001 16.7438C94.0152 16.7438 94.0725 16.7955 94.0725 16.8991V18.1247C94.0725 18.2398 94.0152 18.2973 93.9001 18.2973C91.8881 18.2973 90.2672 17.9923 89.0374 17.3824C88.267 17.7277 87.4738 17.9693 86.6578 18.1074C85.8419 18.234 84.8128 18.2973 83.5712 18.2973C83.4561 18.2858 83.3988 18.2283 83.3988 18.1247V16.8991C83.3988 16.7955 83.4561 16.7438 83.5712 16.7438C84.7555 16.7438 85.9219 16.6402 87.0717 16.433C86.4626 15.708 85.9453 15.0291 85.5197 14.3961C85.0942 13.7517 84.6231 12.9404 84.1058 11.9622L84.6576 10.633C86.2667 9.80446 87.7214 9.39018 89.0202 9.39018C90.17 9.39018 91.1239 9.69516 91.8826 10.3051C92.6413 10.915 93.0206 11.6917 93.0206 12.6354C93.0206 13.2914 92.8192 13.9589 92.4171 14.6378C92.015 15.3053 91.4225 15.9152 90.641 16.4676C91.5605 16.6517 92.6468 16.7438 93.9001 16.7438ZM88.7788 10.8747C87.8821 10.8632 86.842 11.1336 85.6577 11.686C86.1633 12.6642 86.6351 13.4812 87.0717 14.1372C87.52 14.7816 88.0663 15.4664 88.7098 16.1914C89.5375 15.7886 90.21 15.2995 90.7273 14.7241C91.2563 14.1487 91.5205 13.6136 91.5205 13.1187C91.5205 12.4513 91.2673 11.9104 90.7617 11.4961C90.2672 11.0818 89.6064 10.8747 88.7788 10.8747ZM93.9276 18.2973C93.8125 18.2973 93.7552 18.2398 93.7552 18.1247L93.7725 16.8991C93.7725 16.7955 93.8297 16.7438 93.9449 16.7438H95.2554C96.6921 16.7438 97.4108 16.0245 97.4108 14.586V9.95982L98.8593 9.71815V14.983C98.8593 16.0417 98.5544 16.8589 97.9454 17.4342C97.3356 18.0096 96.4335 18.2973 95.2381 18.2973H93.9276ZM95.0312 22.1467L93.7725 20.9039L95.0312 19.661L96.29 20.9039L95.0312 22.1467ZM97.7729 22.1467L96.4969 20.9039L97.7729 19.661L99.0317 20.9039L97.7729 22.1467ZM105.99 16.7438C106.105 16.7438 106.162 16.7955 106.162 16.8991V18.1247C106.162 18.2398 106.105 18.2973 105.99 18.2973C105.105 18.2973 104.455 17.9923 104.041 17.3824V17.8313C104.041 19.2697 103.674 20.3227 102.938 20.9902C102.202 21.6691 101.098 22.0086 99.6269 22.0086L99.489 20.7485C101.558 20.7485 102.593 19.7589 102.593 17.7795L102.576 9.95982L104.041 9.71815V15.1039C104.122 16.1971 104.771 16.7438 105.99 16.7438ZM114.899 5.69613L114.002 6.59375L113.089 5.69613L113.985 4.78125L114.899 5.69613ZM113.813 7.80208L112.571 9.0622L111.295 7.80208L112.554 6.55923L113.813 7.80208ZM115.416 9.0622L114.14 7.80208L115.416 6.55923L116.675 7.80208L115.416 9.0622ZM122.193 16.7438C122.308 16.7438 122.366 16.7955 122.366 16.8991V18.1247C122.366 18.2398 122.308 18.2973 122.193 18.2973C121.238 18.2973 120.348 17.9464 119.52 17.2443C118.934 17.9348 118.031 18.2801 116.813 18.2801C115.893 18.2801 114.934 17.9751 113.933 17.3652C113.324 17.9751 112.451 18.2801 111.312 18.2801C110.485 18.2801 109.628 17.9809 108.743 17.3824C108.111 17.9923 107.197 18.2973 106.002 18.2973C105.886 18.2973 105.829 18.2398 105.829 18.1247V16.8991C105.829 16.7955 105.886 16.7438 106.002 16.7438C107.45 16.7438 108.174 16.0245 108.174 14.586L108.157 11.7896L109.623 11.5652V14.983C109.623 15.4664 109.554 15.9094 109.416 16.3122C110.082 16.5884 110.68 16.7265 111.209 16.7265C112.657 16.7265 113.382 16.0072 113.382 14.5687L113.364 11.7723L114.83 11.5479V14.9658C114.83 15.4721 114.755 15.9152 114.606 16.2949C115.318 16.5827 115.985 16.7265 116.606 16.7265C117.307 16.7265 117.842 16.5481 118.21 16.1914C118.589 15.8231 118.779 15.2822 118.779 14.5687V9.94256L120.227 9.70089V14.9658C120.227 15.3455 120.181 15.7196 120.089 16.0878C120.756 16.5251 121.457 16.7438 122.193 16.7438ZM122.201 18.2973C122.085 18.2973 122.028 18.2398 122.028 18.1247V16.8991C122.028 16.7955 122.092 16.7438 122.218 16.7438C123.655 16.7438 124.373 15.9958 124.373 14.4997L124.391 5.92054L125.839 5.69613V14.8449C125.839 17.1465 124.626 18.2973 122.201 18.2973ZM128.82 18.2973V5.92054L130.286 5.69613V18.2973H128.82ZM146.462 16.7438C146.577 16.7438 146.635 16.7955 146.635 16.8991V18.1247C146.635 18.2398 146.577 18.2973 146.462 18.2973C144.577 18.2973 142.865 17.791 141.324 16.7783C140.002 17.4917 139.174 17.9923 138.841 18.2801C138.404 18.6598 138.185 19.0798 138.185 19.5402C138.185 20.1501 138.49 20.6334 139.099 20.9902C139.72 21.3584 140.559 21.5426 141.617 21.5426C142.813 21.5426 144.106 21.3297 145.497 20.9039L145.91 22.164C144.29 22.7509 142.813 23.0443 141.479 23.0443C140.054 23.0443 138.916 22.7394 138.065 22.1295C137.226 21.531 136.806 20.7197 136.806 19.6955C136.806 18.9475 137.053 18.3261 137.547 17.8313C138.042 17.3364 138.823 16.8071 139.892 16.2432C139.203 15.4491 138.628 14.7241 138.168 14.0682C137.72 13.4007 137.22 12.5434 136.668 11.4961L137.237 10.167C138.858 9.33839 140.306 8.92411 141.582 8.92411C142.732 8.92411 143.686 9.23482 144.445 9.85625C145.215 10.4661 145.6 11.2372 145.6 12.1693C145.6 13.5158 144.634 14.7932 142.703 16.0015C143.887 16.4964 145.141 16.7438 146.462 16.7438ZM141.358 10.4086C140.461 10.3971 139.416 10.6676 138.22 11.2199C139.094 12.9001 140.077 14.3559 141.168 15.5872C143.134 14.5054 144.117 13.5273 144.117 12.6527C144.117 11.9852 143.865 11.4443 143.358 11.0301C142.853 10.6158 142.186 10.4086 141.358 10.4086ZM151.174 9.9253C152.277 9.9253 153.202 10.3051 153.95 11.0646C154.697 11.8126 155.071 12.7505 155.071 13.8783C155.071 15.2592 154.64 16.341 153.778 17.1235C152.926 17.906 151.748 18.2973 150.243 18.2973H146.466C146.351 18.2973 146.294 18.2398 146.294 18.1247V16.8991C146.294 16.7955 146.351 16.7438 146.466 16.7438H147.949C147.432 15.6735 147.173 14.7414 147.173 13.9473C147.173 12.785 147.546 11.8241 148.294 11.0646C149.053 10.3051 150.012 9.9253 151.174 9.9253ZM150.363 16.7438C151.352 16.7438 152.139 16.4964 152.726 16.0015C153.312 15.5066 153.605 14.8161 153.605 13.9301C153.605 13.1935 153.364 12.5894 152.881 12.1176C152.409 11.6342 151.812 11.3926 151.088 11.3926C150.398 11.3926 149.812 11.6515 149.329 12.1693C148.846 12.6757 148.605 13.2741 148.605 13.9646C148.605 14.7932 148.891 15.7196 149.467 16.7438H150.363ZM168.438 7.23244L167.179 8.4753L165.92 7.23244L167.179 5.98958L168.438 7.23244ZM171.18 7.23244L169.921 8.4753L168.645 7.23244L169.921 5.98958L171.18 7.23244ZM173.214 16.7438C173.33 16.7438 173.387 16.7955 173.387 16.8991V18.1247C173.387 18.2398 173.33 18.2973 173.214 18.2973H172.128C171.726 20.7715 169.674 22.0086 165.972 22.0086C164.386 22.0086 163.11 21.6231 162.144 20.8521C161.178 20.081 160.696 18.9763 160.696 17.5378C160.696 16.3065 160.949 14.9197 161.454 13.3777L162.644 13.7057C162.242 14.891 162.041 16.0417 162.041 17.158C162.052 18.2973 162.432 19.1661 163.179 19.7646C163.937 20.363 164.984 20.6622 166.317 20.6622C167.536 20.6622 168.519 20.4551 169.266 20.0408C170.024 19.638 170.502 19.0568 170.697 18.2973H168.593C167.421 18.2973 166.478 17.9406 165.765 17.2271C165.053 16.5021 164.696 15.5354 164.696 14.3271C164.696 13.0727 165.058 12.0542 165.782 11.2717C166.518 10.4777 167.455 10.0864 168.593 10.0979C169.662 10.1209 170.531 10.4892 171.197 11.2027C171.864 11.9047 172.197 12.831 172.197 13.9818V16.7438H173.214ZM166.714 12.3074C166.265 12.7908 166.041 13.441 166.041 14.258C166.041 15.0751 166.289 15.7023 166.783 16.1396C167.277 16.5769 167.944 16.7955 168.783 16.7955C169.151 16.7955 169.806 16.784 170.749 16.761L170.731 14.1027C170.731 13.3661 170.519 12.7735 170.093 12.3247C169.679 11.8644 169.134 11.6285 168.455 11.617C167.743 11.594 167.162 11.8241 166.714 12.3074ZM178.949 7.21518L177.69 8.4753L176.414 7.21518L177.656 5.97232L178.949 7.21518ZM177.914 9.9253C179.018 9.9253 179.943 10.3051 180.69 11.0646C181.437 11.8126 181.811 12.7505 181.811 13.8783C181.811 15.2592 181.38 16.341 180.518 17.1235C179.668 17.906 178.489 18.2973 176.983 18.2973H173.207C173.092 18.2973 173.034 18.2398 173.034 18.1247V16.8991C173.034 16.7955 173.092 16.7438 173.207 16.7438H174.69C174.172 15.6735 173.914 14.7414 173.914 13.9473C173.914 12.785 174.288 11.8241 175.035 11.0646C175.793 10.3051 176.753 9.9253 177.914 9.9253ZM177.104 16.7438C178.092 16.7438 178.88 16.4964 179.466 16.0015C180.052 15.5066 180.346 14.8161 180.346 13.9301C180.346 13.1935 180.104 12.5894 179.621 12.1176C179.15 11.6342 178.552 11.3926 177.828 11.3926C177.138 11.3926 176.552 11.6515 176.069 12.1693C175.586 12.6757 175.345 13.2741 175.345 13.9646C175.345 14.7932 175.633 15.7196 176.207 16.7438H177.104ZM184.053 18.2973V5.92054L185.519 5.69613V18.2973H184.053ZM196.26 16.7438C196.374 16.7438 196.432 16.7955 196.432 16.8991V18.1247C196.432 18.2398 196.374 18.2973 196.26 18.2973H195.242C195.036 20.7715 192.897 22.0086 188.828 22.0086L188.656 20.7485C190.253 20.7485 191.477 20.5529 192.328 20.1616C193.179 19.7703 193.662 19.1489 193.777 18.2973H191.708C190.489 18.2973 189.511 17.9291 188.776 17.1926C188.04 16.4446 187.673 15.4434 187.673 14.189C187.673 12.9577 188.046 11.9507 188.793 11.1682C189.552 10.3856 190.506 9.99435 191.656 9.99435C192.725 9.99435 193.593 10.3511 194.26 11.0646C194.926 11.7666 195.26 12.6987 195.26 13.861V16.7438H196.26ZM189.035 14.1199C189.035 14.983 189.294 15.6447 189.811 16.1051C190.328 16.5654 191.023 16.7955 191.897 16.7955C192.265 16.7955 192.897 16.784 193.794 16.761V13.9818C193.794 13.2339 193.581 12.6354 193.156 12.1866C192.742 11.7263 192.196 11.4961 191.518 11.4961C190.805 11.4961 190.213 11.7378 189.742 12.2211C189.27 12.7045 189.035 13.3374 189.035 14.1199ZM199.433 9.07946L198.174 10.3223L196.915 9.07946L198.174 7.83661L199.433 9.07946ZM202.174 9.07946L200.916 10.3223L199.64 9.07946L200.916 7.83661L202.174 9.07946ZM202.743 16.7438C202.859 16.7438 202.916 16.7955 202.916 16.8991V18.1247C202.916 18.2398 202.859 18.2973 202.743 18.2973C201.674 18.2973 200.686 17.8773 199.778 17.0372C199.157 17.8773 197.984 18.2973 196.26 18.2973C196.145 18.2973 196.087 18.2398 196.087 18.1247L196.105 16.8991C196.105 16.7955 196.162 16.7438 196.277 16.7438C197.197 16.7438 197.863 16.5769 198.277 16.2432C198.703 15.8979 198.915 15.3455 198.915 14.586V11.7896L200.364 11.5652V14.983C200.364 15.2708 200.335 15.5699 200.278 15.8807C201.048 16.456 201.869 16.7438 202.743 16.7438ZM207.45 9.9253C208.554 9.9253 209.479 10.3051 210.226 11.0646C210.974 11.8126 211.347 12.7505 211.347 13.8783C211.347 15.2592 210.916 16.341 210.054 17.1235C209.203 17.906 208.025 18.2973 206.519 18.2973H202.743C202.628 18.2973 202.57 18.2398 202.57 18.1247V16.8991C202.57 16.7955 202.628 16.7438 202.743 16.7438H204.226C203.708 15.6735 203.45 14.7414 203.45 13.9473C203.45 12.785 203.824 11.8241 204.57 11.0646C205.329 10.3051 206.289 9.9253 207.45 9.9253ZM206.64 16.7438C207.629 16.7438 208.416 16.4964 209.002 16.0015C209.588 15.5066 209.881 14.8161 209.881 13.9301C209.881 13.1935 209.64 12.5894 209.157 12.1176C208.686 11.6342 208.088 11.3926 207.364 11.3926C206.674 11.3926 206.088 11.6515 205.605 12.1693C205.122 12.6757 204.881 13.2741 204.881 13.9646C204.881 14.7932 205.169 15.7196 205.743 16.7438H206.64ZM13.1359 45.4986C13.1359 47.0425 12.5441 48.362 11.3605 49.4571C10.1948 50.5343 8.78707 51.0728 7.13722 51.0728C6.16881 51.0728 5.01212 50.7766 3.66713 50.1842C3.30847 50.0226 3.03947 49.9418 2.86014 49.9418C2.64494 49.9418 2.51044 50.2022 2.45664 50.7228C2.43871 50.9921 2.32215 51.1267 2.10695 51.1267C1.92762 51.1267 1.83795 51.019 1.83795 50.8036C1.83795 50.6599 1.84692 50.5522 1.86485 50.4804C2.00831 49.3853 2.08005 48.371 2.08005 47.4375C2.08005 47.258 2.06211 46.7553 2.02625 45.9295C2.00831 45.8218 1.99935 45.6782 1.99935 45.4986C1.99935 45.2293 2.10695 45.0947 2.32215 45.0947C2.50148 45.0947 2.62701 45.3101 2.69874 45.741C3.165 48.9365 4.68036 50.5343 7.24482 50.5343C8.33874 50.5343 9.1816 50.2291 9.77339 49.6187C10.3831 48.9904 10.688 48.1107 10.688 46.9797C10.688 45.9744 10.3921 45.1216 9.80029 44.4215C9.22643 43.7034 8.23114 42.9943 6.81441 42.2941C5.11075 41.4504 3.92716 40.6335 3.26364 39.8436C2.60011 39.0537 2.26835 38.0753 2.26835 36.9084C2.26835 35.4184 2.74358 34.1886 3.69403 33.2192C4.66242 32.2498 5.88188 31.7651 7.35241 31.7651C7.96214 31.7651 8.805 31.9715 9.88099 32.3844C10.2576 32.528 10.5356 32.5998 10.7149 32.5998C10.9121 32.5998 11.0377 32.5639 11.0915 32.4921C11.1632 32.4203 11.226 32.2318 11.2798 31.9266C11.3156 31.7471 11.4143 31.6573 11.5757 31.6573C11.755 31.6573 11.8447 31.7651 11.8447 31.9805C11.8447 32.1241 11.8357 32.2318 11.8178 32.3036C11.764 32.7345 11.7371 33.2551 11.7371 33.8655C11.7371 34.7272 11.7819 35.4094 11.8716 35.9121L11.8985 36.3429C11.9164 36.5404 11.8357 36.6391 11.6564 36.6391C11.4591 36.6391 11.3246 36.4327 11.2529 36.0198C11.0556 34.9606 10.5894 34.0809 9.85409 33.3808C9.11883 32.6627 8.29391 32.3036 7.37931 32.3036C6.48264 32.3036 5.76532 32.5909 5.22732 33.1653C4.70726 33.7398 4.44723 34.5207 4.44723 35.5081C4.44723 36.6571 4.83279 37.5816 5.60392 38.2818C6.03431 38.6767 6.96685 39.2333 8.40151 39.9513C10.0872 40.7951 11.2977 41.6568 12.033 42.5365C12.7682 43.3982 13.1359 44.3856 13.1359 45.4986ZM28.0472 50.5881C28.0472 50.7317 27.8947 50.8036 27.5899 50.8036C27.4464 50.8036 27.3119 50.7946 27.1864 50.7766C26.5587 50.7946 25.1599 50.8036 22.99 50.8036H22.6941C22.461 50.8036 22.3444 50.7317 22.3444 50.5881C22.3444 50.4625 22.6851 50.3996 23.3666 50.3996C23.7791 50.3996 24.0122 50.3547 24.066 50.265C24.1377 50.1573 24.1736 49.8162 24.1736 49.2417V43.7752C24.1736 42.1415 24.1019 41.1272 23.9584 40.7323C23.6535 39.9065 22.981 39.4936 21.9409 39.4936C21.0801 39.4936 20.3807 39.8795 19.8427 40.6515C19.6634 40.9028 19.5737 41.4593 19.5737 42.3211V49.1878C19.5737 49.6726 19.5827 49.9508 19.6006 50.0226C19.6186 50.2022 19.6903 50.3099 19.8158 50.3458C19.9414 50.3637 20.3269 50.3817 20.9725 50.3996C21.1877 50.3996 21.2953 50.4714 21.2953 50.6151C21.2953 50.7407 21.2057 50.8036 21.0263 50.8036C21.0263 50.8036 20.9367 50.7946 20.7573 50.7766L18.6322 50.7497C17.1438 50.7317 16.3189 50.7497 16.1575 50.8036H15.8885C15.6912 50.8036 15.5926 50.7407 15.5926 50.6151C15.5926 50.4714 15.6912 50.3996 15.8885 50.3996H16.292L16.6955 50.3727C17.1079 50.3907 17.3231 50.265 17.3411 49.9957V37.9048C17.3411 35.0324 17.2962 33.4795 17.2066 33.2461C17.099 33.0666 16.6596 32.9679 15.8885 32.9499C15.4581 32.9499 15.2429 32.8871 15.2429 32.7614C15.2429 32.6537 15.2877 32.5909 15.3774 32.5729C15.467 32.555 15.7719 32.537 16.292 32.5191C17.2066 32.5011 18.0853 32.2857 18.9281 31.8728C18.9999 31.8369 19.1254 31.792 19.3047 31.7381C19.4303 31.9536 19.493 32.6447 19.493 33.8116V40.4091C20.2821 39.2602 21.3581 38.6857 22.721 38.6857C24.1557 38.6857 25.1779 39.0807 25.7876 39.8706C26.0924 40.2655 26.2807 40.822 26.3525 41.5401C26.3883 41.7915 26.4063 42.3929 26.4063 43.3443V50.1303C26.4242 50.3099 26.8905 50.3996 27.8051 50.3996C27.9665 50.4355 28.0472 50.4984 28.0472 50.5881ZM41.0355 49.5379C41.0355 49.8431 40.7127 50.1662 40.0671 50.5073C39.4395 50.8305 38.8298 50.9921 38.238 50.9921C37.0006 50.9921 36.355 50.3547 36.3012 49.0801C35.6197 50.4086 34.5617 51.0728 33.127 51.0728C32.3559 51.0728 31.7193 50.8484 31.2171 50.3996C30.715 49.9329 30.4639 49.3404 30.4639 48.6223C30.4639 47.1502 31.3516 45.9833 33.127 45.1216C33.7367 44.8344 34.7948 44.5472 36.3012 44.2599V43.5867C36.3012 42.0069 36.2205 40.9657 36.0591 40.463C35.7722 39.5474 35.1266 39.0896 34.1223 39.0896C33.4946 39.0896 32.9656 39.2602 32.5352 39.6013C32.1228 39.9424 31.9165 40.3732 31.9165 40.8938C31.9165 41.0375 32.0241 41.1093 32.2393 41.1093C32.4724 41.1093 32.6787 41.217 32.858 41.4324C33.0373 41.6478 33.127 41.8902 33.127 42.1595C33.127 42.9494 32.7325 43.3443 31.9434 43.3443C31.531 43.3443 31.1902 43.2097 30.9212 42.9404C30.6522 42.6532 30.5177 42.2941 30.5177 41.8633C30.5177 41.0195 30.8495 40.2924 31.513 39.6821C32.2483 39.0178 33.2705 38.6857 34.5796 38.6857C36.5522 38.6857 37.7627 39.2243 38.2111 40.3014C38.3725 40.7143 38.4532 41.5312 38.4532 42.7519V47.7876C38.4532 48.6134 38.4621 49.0981 38.4801 49.2417C38.5697 49.888 38.8298 50.2111 39.2602 50.2111C39.7623 50.2111 40.1747 50.0316 40.4975 49.6726C40.6769 49.4751 40.8114 49.3763 40.901 49.3763C40.9907 49.3763 41.0355 49.4302 41.0355 49.5379ZM36.3012 46.6835V44.7177C34.9562 45.0229 33.9878 45.4268 33.396 45.9295C32.8221 46.4142 32.5352 47.0695 32.5352 47.8953C32.5352 48.4697 32.6966 48.9455 33.0194 49.3225C33.3601 49.6815 33.7816 49.8611 34.2837 49.8611C35.0548 49.8611 35.6735 49.4302 36.1398 48.5685C36.2474 48.371 36.3012 47.7427 36.3012 46.6835ZM50.6319 40.5168C50.6319 40.9298 50.5063 41.2708 50.2553 41.5401C50.0042 41.8094 49.6814 41.9441 49.2869 41.9441C48.9641 41.9441 48.6951 41.8543 48.4799 41.6748C48.2647 41.4773 48.1571 41.2349 48.1571 40.9477C48.1571 40.6964 48.2378 40.4809 48.3992 40.3014C48.5606 40.1219 48.6413 39.9962 48.6413 39.9244C48.6413 39.6551 48.444 39.5205 48.0495 39.5205C47.5474 39.5205 47.117 39.8347 46.7583 40.463C46.3458 41.199 46.1396 42.5634 46.1396 44.5561V49.888C46.1396 50.1034 46.2113 50.2381 46.3548 50.2919C46.5162 50.3458 46.9825 50.3817 47.7536 50.3996C47.9509 50.4355 48.0495 50.5073 48.0495 50.6151C48.0495 50.7407 47.9329 50.8036 47.6998 50.8036C47.2873 50.8036 46.9018 50.7946 46.5431 50.7766C46.1844 50.7587 45.503 50.7497 44.4987 50.7497C43.9786 50.7497 43.6021 50.7587 43.3689 50.7766C43.1358 50.7946 42.8399 50.8036 42.4812 50.8036C42.1943 50.8036 42.0508 50.7407 42.0508 50.6151C42.0508 50.4894 42.1674 50.4266 42.4005 50.4266H42.7771C43.3869 50.4266 43.7455 50.3547 43.8531 50.2111C43.889 50.1393 43.9069 49.8072 43.9069 49.2148V41.8094C43.9069 40.822 43.7545 40.2565 43.4496 40.1129C43.1627 39.9513 42.6964 39.8616 42.0508 39.8436C41.8356 39.8436 41.728 39.7808 41.728 39.6551C41.728 39.5295 41.8177 39.4666 41.997 39.4666H42.1853C42.4543 39.4666 42.7233 39.4846 42.9923 39.5205C43.2613 39.5384 43.3779 39.5474 43.342 39.5474C44.0055 39.5474 44.7408 39.3589 45.5478 38.9819L45.8975 38.8203L46.1127 38.7396C46.1844 39.1704 46.2203 39.6013 46.2203 40.0321V40.5707C46.7942 39.314 47.6012 38.6857 48.6413 38.6857C49.2151 38.6857 49.6904 38.8652 50.067 39.2243C50.4436 39.5654 50.6319 39.9962 50.6319 40.5168ZM56.5276 33.8116C56.5276 34.6195 56.1241 35.0234 55.3171 35.0234C54.9764 35.0234 54.6894 34.9157 54.4563 34.7003C54.2232 34.4669 54.1066 34.1886 54.1066 33.8655C54.1066 33.0217 54.5101 32.5998 55.3171 32.5998C56.1241 32.5998 56.5276 33.0038 56.5276 33.8116ZM58.5451 50.5881C58.5451 50.7497 58.3926 50.8305 58.0878 50.8305C58.1057 50.8305 57.8905 50.8125 57.4422 50.7766C56.9042 50.7407 56.4559 50.7228 56.0972 50.7228L53.2996 50.7766C53.21 50.7946 53.1024 50.8036 52.9768 50.8036C52.7796 50.8036 52.6809 50.7407 52.6809 50.6151C52.6809 50.4355 52.8603 50.3458 53.2189 50.3458C53.9004 50.3278 54.268 50.2829 54.3218 50.2111C54.3935 50.1214 54.4294 49.7444 54.4294 49.0801L54.4025 40.9208C54.3846 40.472 54.3577 40.2117 54.3218 40.1398C54.3039 40.0501 54.1963 40.0052 53.999 40.0052L53.2189 40.0321C53.1472 40.0501 53.0575 40.0591 52.9499 40.0591C52.7527 40.0591 52.654 39.9873 52.654 39.8436C52.654 39.718 52.8065 39.6462 53.1113 39.6282C54.3129 39.5743 55.344 39.2871 56.2048 38.7665L56.4738 38.6049C56.6173 38.8742 56.689 39.3679 56.689 40.086C56.689 40.0501 56.689 40.1398 56.689 40.3553C56.6711 40.5707 56.6621 40.9208 56.6621 41.4055V48.757C56.6621 49.4751 56.6711 49.897 56.689 50.0226C56.7249 50.1483 56.8235 50.2291 56.9849 50.265C57.2539 50.3368 57.6484 50.3727 58.1685 50.3727C58.4195 50.3727 58.5451 50.4445 58.5451 50.5881ZM71.7057 49.5379C71.7057 49.8431 71.3829 50.1662 70.7373 50.5073C70.1096 50.8305 69.4999 50.9921 68.9084 50.9921C67.671 50.9921 67.0254 50.3547 66.9716 49.0801C66.2901 50.4086 65.2321 51.0728 63.7974 51.0728C63.0263 51.0728 62.3897 50.8484 61.8875 50.3996C61.3854 49.9329 61.1344 49.3404 61.1344 48.6223C61.1344 47.1502 62.022 45.9833 63.7974 45.1216C64.4072 44.8344 65.4652 44.5472 66.9716 44.2599V43.5867C66.9716 42.0069 66.8909 40.9657 66.7295 40.463C66.4426 39.5474 65.797 39.0896 64.7927 39.0896C64.1651 39.0896 63.636 39.2602 63.2056 39.6013C62.7932 39.9424 62.5869 40.3732 62.5869 40.8938C62.5869 41.0375 62.6945 41.1093 62.9097 41.1093C63.1429 41.1093 63.3491 41.217 63.5284 41.4324C63.7078 41.6478 63.7974 41.8902 63.7974 42.1595C63.7974 42.9494 63.4029 43.3443 62.6138 43.3443C62.2014 43.3443 61.8606 43.2097 61.5917 42.9404C61.3227 42.6532 61.1882 42.2941 61.1882 41.8633C61.1882 41.0195 61.5199 40.2924 62.1834 39.6821C62.9187 39.0178 63.9409 38.6857 65.25 38.6857C67.2227 38.6857 68.4332 39.2243 68.8815 40.3014C69.0426 40.7143 69.1233 41.5312 69.1233 42.7519V47.7876C69.1233 48.6134 69.1323 49.0981 69.1502 49.2417C69.2399 49.888 69.4999 50.2111 69.9303 50.2111C70.4324 50.2111 70.8449 50.0316 71.1677 49.6726C71.347 49.4751 71.4815 49.3763 71.5712 49.3763C71.6609 49.3763 71.7057 49.4302 71.7057 49.5379ZM66.9716 46.6835V44.7177C65.6266 45.0229 64.6582 45.4268 64.0664 45.9295C63.4926 46.4142 63.2056 47.0695 63.2056 47.8953C63.2056 48.4697 63.367 48.9455 63.6898 49.3225C64.0306 49.6815 64.452 49.8611 64.9541 49.8611C65.7252 49.8611 66.3439 49.4302 66.8102 48.5685C66.9178 48.371 66.9716 47.7427 66.9716 46.6835ZM94.9629 44.7446C94.9629 44.7087 94.945 44.9511 94.9091 45.4717C94.8374 46.5129 94.8015 47.5183 94.8015 48.4877C94.8015 48.5954 94.8195 48.8198 94.8553 49.1609C94.8912 49.4841 94.9091 49.879 94.9091 50.3458V50.5881C94.9091 50.8215 94.8374 50.9382 94.6939 50.9382C94.5505 50.9382 94.4249 50.8036 94.3173 50.5343C94.0663 49.9418 93.8152 49.5559 93.5642 49.3763C92.273 50.5073 90.7218 51.0728 88.9105 51.0728C86.2743 51.0728 84.0865 50.1573 82.347 48.3261C80.6254 46.477 79.7646 44.1522 79.7646 41.3516C79.7646 38.5331 80.5536 36.2352 82.1318 34.4579C83.7278 32.6627 85.7812 31.7651 88.2918 31.7651C89.2064 31.7651 89.9327 31.8458 90.4707 32.0074C91.0266 32.151 91.7081 32.4562 92.5151 32.923C92.9096 33.1564 93.2055 33.2731 93.4028 33.2731C93.5642 33.2731 93.7166 33.1294 93.8601 32.8422C94.0932 32.3395 94.2815 32.0882 94.4249 32.0882C94.5684 32.0882 94.6401 32.16 94.6401 32.3036C94.6401 32.3754 94.6222 32.4921 94.5863 32.6537C94.3891 33.5154 94.2904 35.1311 94.2904 37.5008C94.2904 37.8419 94.2636 38.0394 94.2098 38.0933C94.156 38.1471 94.0842 38.1741 93.9945 38.1741C93.8152 38.1741 93.6987 38.0035 93.6449 37.6624C93.4117 36.2262 93.08 35.1581 92.6496 34.4579C91.7708 33.0217 90.39 32.3036 88.507 32.3036C87.0544 32.3036 85.9067 32.7883 85.0638 33.7578C83.5395 35.4992 82.7774 38.0484 82.7774 41.4055C82.7774 44.4035 83.405 46.7284 84.6603 48.38C85.7543 49.8162 87.2068 50.5343 89.0181 50.5343C89.9506 50.5343 90.8024 50.3099 91.5736 49.8611C92.3447 49.3943 92.9365 48.766 93.349 47.9761C93.8152 47.0605 94.147 46.0641 94.3442 44.987C94.416 44.5561 94.5325 44.3407 94.6939 44.3407C94.8733 44.3407 94.9629 44.4753 94.9629 44.7446ZM109.666 44.9331C109.666 46.6745 109.137 48.1376 108.079 49.3225C107.021 50.4894 105.703 51.0728 104.125 51.0728C102.493 51.0728 101.13 50.4894 100.036 49.3225C98.942 48.1376 98.3951 46.6745 98.3951 44.9331C98.3951 43.1379 98.9241 41.6478 99.9822 40.463C101.058 39.2781 102.394 38.6857 103.99 38.6857C105.604 38.6857 106.949 39.2871 108.025 40.4899C109.119 41.6748 109.666 43.1558 109.666 44.9331ZM107.218 44.9062C107.218 42.9314 106.913 41.3965 106.304 40.3014C105.855 39.4936 105.102 39.0896 104.044 39.0896C103.04 39.0896 102.251 39.6102 101.677 40.6515C101.121 41.6748 100.843 43.102 100.843 44.9331C100.843 46.7463 101.139 48.1646 101.731 49.1878C102.34 50.1932 103.183 50.6958 104.259 50.6958C105.084 50.6958 105.694 50.3817 106.088 49.7533C106.842 48.5685 107.218 46.9528 107.218 44.9062ZM130.776 50.5881C130.776 50.7317 130.624 50.8036 130.319 50.8036C130.283 50.8036 130.086 50.7946 129.727 50.7766C129.386 50.7587 128.92 50.7497 128.328 50.7497C128.275 50.7497 127.324 50.7677 125.477 50.8036C125.244 50.8036 125.127 50.7407 125.127 50.6151C125.127 50.4714 125.226 50.3996 125.423 50.3996H125.638L126.311 50.3727C126.58 50.3547 126.732 50.2919 126.768 50.1842C126.822 50.0765 126.849 49.6995 126.849 49.0532V42.3749C126.849 41.3337 126.705 40.5976 126.418 40.1668C126.149 39.718 125.683 39.4936 125.02 39.4936C124.553 39.4936 124.114 39.6372 123.702 39.9244C123.307 40.1937 123.029 40.5438 122.868 40.9746C122.796 41.2439 122.76 42.2403 122.76 43.9637V49.0532C122.76 49.6456 122.769 49.9867 122.787 50.0765C122.841 50.2919 123.002 50.3996 123.271 50.3996H124.051C124.284 50.3996 124.401 50.4714 124.401 50.6151C124.401 50.7407 124.266 50.8036 123.997 50.8036H123.809C123.63 50.7677 123.02 50.7497 121.98 50.7497C121.621 50.7497 121.137 50.7587 120.527 50.7766C119.936 50.7946 119.577 50.8036 119.451 50.8036H119.155C118.94 50.8036 118.833 50.7317 118.833 50.5881C118.833 50.4984 118.886 50.4445 118.994 50.4266C119.102 50.4086 119.46 50.3996 120.07 50.3996C120.357 50.3817 120.509 50.2919 120.527 50.1303L120.554 49.7533V42.2403C120.554 41.199 120.42 40.4809 120.151 40.086C119.9 39.691 119.442 39.4936 118.779 39.4936C118.115 39.4936 117.559 39.7 117.111 40.1129C116.681 40.5258 116.466 41.0464 116.466 41.6748V49.3225C116.466 49.8611 116.501 50.1842 116.573 50.2919C116.663 50.3817 116.932 50.4266 117.38 50.4266H117.595C117.703 50.4086 117.802 50.3996 117.891 50.3996C118.088 50.3996 118.187 50.4714 118.187 50.6151C118.187 50.7407 118.071 50.8036 117.837 50.8036H117.568C117.138 50.7497 116.466 50.7317 115.551 50.7497L112.915 50.8036C112.664 50.8036 112.538 50.7317 112.538 50.5881C112.538 50.4625 112.655 50.3996 112.888 50.3996C113.569 50.3996 113.964 50.3727 114.071 50.3188C114.179 50.247 114.242 50.1303 114.26 49.9688V42.9673C114.26 41.6209 114.233 40.831 114.179 40.5976C114.125 40.3643 113.865 40.2476 113.399 40.2476H113.022C112.861 40.2655 112.691 40.2745 112.511 40.2745C112.278 40.2745 112.162 40.2117 112.162 40.086C112.162 39.9783 112.197 39.9154 112.269 39.8975C112.359 39.8795 112.655 39.8526 113.157 39.8167C113.569 39.7988 114.08 39.691 114.69 39.4936C115.318 39.2961 115.676 39.1255 115.766 38.9819C115.963 38.7844 116.107 38.6857 116.197 38.6857C116.286 38.6857 116.34 38.7575 116.358 38.9011C116.376 39.0448 116.394 39.5474 116.412 40.4091C117.129 39.2602 118.232 38.6857 119.72 38.6857C121.316 38.6857 122.285 39.2871 122.626 40.4899C123.325 39.2871 124.446 38.6857 125.988 38.6857C127.315 38.6857 128.212 39.1614 128.678 40.1129C128.929 40.6156 129.055 41.4504 129.055 42.6173V49.2686C129.055 49.879 129.082 50.2201 129.135 50.2919C129.207 50.3458 129.494 50.3907 129.996 50.4266L130.48 50.3996C130.678 50.3817 130.776 50.4445 130.776 50.5881ZM144.479 44.7716C144.479 46.5668 143.967 48.0658 142.945 49.2686C141.941 50.4714 140.686 51.0728 139.179 51.0728C137.996 51.0728 137.081 50.642 136.435 49.7803V56.0546C136.435 56.4496 136.444 56.683 136.462 56.7548C136.498 56.8266 136.588 56.8894 136.731 56.9433C137 56.9971 137.52 57.0241 138.292 57.0241C138.507 57.0241 138.614 57.1048 138.614 57.2664C138.614 57.3921 138.498 57.4549 138.265 57.4549H137.754C137.628 57.4549 137.422 57.4549 137.135 57.4549C136.866 57.437 136.633 57.428 136.435 57.428C136.328 57.428 136.032 57.437 135.548 57.4549C135.046 57.4549 134.669 57.4549 134.418 57.4549H132.992C132.472 57.4549 132.212 57.3921 132.212 57.2664C132.212 57.1048 132.32 57.0241 132.535 57.0241H133.342C133.862 57.0241 134.14 56.9074 134.176 56.674C134.194 56.5663 134.203 55.7405 134.203 54.1966V40.7861C134.203 40.2835 133.961 40.0501 133.477 40.086C132.759 40.0501 132.383 40.0321 132.347 40.0321C132.185 40.0321 132.105 39.9693 132.105 39.8436C132.105 39.6821 132.302 39.6013 132.696 39.6013C133.683 39.6192 134.579 39.3858 135.386 38.9011C135.62 38.7575 135.799 38.6857 135.924 38.6857C136.068 38.6857 136.158 38.7575 136.193 38.9011C136.247 39.0268 136.283 39.4307 136.301 40.1129C136.965 39.1614 137.915 38.6857 139.152 38.6857C140.713 38.6857 141.986 39.2602 142.972 40.4091C143.976 41.5401 144.479 42.9943 144.479 44.7716ZM142.084 44.7985C142.084 43.3982 141.869 42.2044 141.439 41.217C140.865 39.8526 139.977 39.1704 138.776 39.1704C138.148 39.1704 137.61 39.3948 137.162 39.8436C136.713 40.2745 136.471 40.8041 136.435 41.4324C136.4 42.2223 136.409 43.8829 136.462 46.4142C136.48 47.6888 136.507 48.4608 136.543 48.7301C136.579 48.9814 136.696 49.2417 136.893 49.511C137.413 50.247 138.085 50.6151 138.91 50.6151C139.843 50.6151 140.542 50.2201 141.008 49.4302C141.726 48.2274 142.084 46.6835 142.084 44.7985ZM152.778 50.5612C152.778 50.7228 152.662 50.8036 152.428 50.8036H152.106C152.07 50.8036 151.595 50.7856 150.68 50.7497L149.846 50.7228C149.703 50.7228 148.985 50.7497 147.694 50.8036C147.586 50.8215 147.479 50.8305 147.371 50.8305C147.102 50.8484 146.968 50.7677 146.968 50.5881C146.968 50.4625 147.066 50.3996 147.264 50.3996H147.963C148.465 50.3996 148.716 50.2919 148.716 50.0765C148.734 49.9688 148.743 49.2686 148.743 47.9761V34.2694C148.743 33.677 148.725 33.3538 148.689 33.3C148.636 33.1564 148.492 33.0846 148.259 33.0846H148.044L147.291 33.1115C147.04 33.1115 146.914 33.0307 146.914 32.8691C146.914 32.7255 147.138 32.6447 147.586 32.6268C148.447 32.5729 149.245 32.3754 149.981 32.0343L150.545 31.7651L150.761 31.6843C150.904 32.2049 150.967 32.9948 150.949 34.054L150.922 35.9659L150.949 49.1609C150.949 49.6995 150.958 50.0226 150.976 50.1303C150.994 50.2201 151.057 50.2829 151.164 50.3188C151.182 50.3368 151.514 50.3547 152.159 50.3727C152.572 50.3727 152.778 50.4355 152.778 50.5612ZM158.902 33.8116C158.902 34.6195 158.498 35.0234 157.691 35.0234C157.35 35.0234 157.063 34.9157 156.83 34.7003C156.597 34.4669 156.481 34.1886 156.481 33.8655C156.481 33.0217 156.884 32.5998 157.691 32.5998C158.498 32.5998 158.902 33.0038 158.902 33.8116ZM160.919 50.5881C160.919 50.7497 160.767 50.8305 160.462 50.8305C160.48 50.8305 160.265 50.8125 159.816 50.7766C159.278 50.7407 158.83 50.7228 158.471 50.7228L155.674 50.7766C155.584 50.7946 155.476 50.8036 155.351 50.8036C155.154 50.8036 155.055 50.7407 155.055 50.6151C155.055 50.4355 155.234 50.3458 155.593 50.3458C156.274 50.3278 156.642 50.2829 156.696 50.2111C156.768 50.1214 156.803 49.7444 156.803 49.0801L156.777 40.9208C156.759 40.472 156.732 40.2117 156.696 40.1398C156.678 40.0501 156.57 40.0052 156.373 40.0052L155.593 40.0321C155.521 40.0501 155.432 40.0591 155.324 40.0591C155.127 40.0591 155.028 39.9873 155.028 39.8436C155.028 39.718 155.18 39.6462 155.485 39.6282C156.687 39.5743 157.718 39.2871 158.579 38.7665L158.848 38.6049C158.991 38.8742 159.063 39.3679 159.063 40.086C159.063 40.0501 159.063 40.1398 159.063 40.3553C159.045 40.5707 159.036 40.9208 159.036 41.4055V48.757C159.036 49.4751 159.045 49.897 159.063 50.0226C159.099 50.1483 159.198 50.2291 159.359 50.265C159.628 50.3368 160.022 50.3727 160.542 50.3727C160.794 50.3727 160.919 50.4445 160.919 50.5881ZM174.08 49.5379C174.08 49.8431 173.757 50.1662 173.112 50.5073C172.484 50.8305 171.874 50.9921 171.282 50.9921C170.045 50.9921 169.399 50.3547 169.346 49.0801C168.664 50.4086 167.606 51.0728 166.171 51.0728C165.4 51.0728 164.764 50.8484 164.262 50.3996C163.759 49.9329 163.508 49.3404 163.508 48.6223C163.508 47.1502 164.396 45.9833 166.171 45.1216C166.781 44.8344 167.839 44.5472 169.346 44.2599V43.5867C169.346 42.0069 169.265 40.9657 169.104 40.463C168.817 39.5474 168.171 39.0896 167.167 39.0896C166.539 39.0896 166.01 39.2602 165.58 39.6013C165.167 39.9424 164.961 40.3732 164.961 40.8938C164.961 41.0375 165.069 41.1093 165.284 41.1093C165.517 41.1093 165.723 41.217 165.902 41.4324C166.082 41.6478 166.171 41.8902 166.171 42.1595C166.171 42.9494 165.777 43.3443 164.988 43.3443C164.575 43.3443 164.235 43.2097 163.966 42.9404C163.697 42.6532 163.562 42.2941 163.562 41.8633C163.562 41.0195 163.894 40.2924 164.557 39.6821C165.293 39.0178 166.315 38.6857 167.624 38.6857C169.597 38.6857 170.807 39.2243 171.256 40.3014C171.417 40.7143 171.498 41.5312 171.498 42.7519V47.7876C171.498 48.6134 171.507 49.0981 171.524 49.2417C171.614 49.888 171.874 50.2111 172.305 50.2111C172.807 50.2111 173.219 50.0316 173.542 49.6726C173.721 49.4751 173.856 49.3763 173.945 49.3763C174.035 49.3763 174.08 49.4302 174.08 49.5379ZM169.346 46.6835V44.7177C168.001 45.0229 167.032 45.4268 166.44 45.9295C165.867 46.4142 165.58 47.0695 165.58 47.8953C165.58 48.4697 165.741 48.9455 166.064 49.3225C166.405 49.6815 166.826 49.8611 167.328 49.8611C168.099 49.8611 168.718 49.4302 169.184 48.5685C169.292 48.371 169.346 47.7427 169.346 46.6835ZM187.657 50.5881C187.657 50.7317 187.523 50.8036 187.254 50.8036H186.931C186.608 50.7677 186.169 50.7497 185.613 50.7497C183.856 50.7497 182.816 50.7677 182.493 50.8036H182.304C182.071 50.8036 181.955 50.7407 181.955 50.6151C181.955 50.5253 182 50.4714 182.089 50.4535C182.197 50.4355 182.546 50.4176 183.138 50.3996C183.479 50.3817 183.676 50.3368 183.73 50.265C183.784 50.1752 183.811 49.879 183.811 49.3763V44.2061C183.811 42.2493 183.739 41.0823 183.596 40.7053C183.291 39.8975 182.681 39.4936 181.766 39.4936C180.87 39.4936 180.117 39.8885 179.507 40.6784C179.327 40.9118 179.238 41.2349 179.238 41.6478L179.265 50.0496C179.265 50.265 179.453 50.3817 179.83 50.3996L180.637 50.4266C180.816 50.4266 180.906 50.4894 180.906 50.6151C180.906 50.7407 180.798 50.8036 180.583 50.8036H180.152C179.758 50.7677 179.13 50.7497 178.269 50.7497C178.072 50.7497 177.642 50.7587 176.978 50.7766C176.333 50.7946 175.956 50.8036 175.848 50.8036H175.687C175.418 50.8036 175.284 50.7407 175.284 50.6151C175.284 50.4894 175.445 50.4086 175.768 50.3727C176.001 50.3727 176.225 50.3727 176.44 50.3727C176.709 50.3727 176.871 50.3099 176.924 50.1842L177.005 49.7803V43.9098C177.005 41.8633 176.987 40.7323 176.951 40.5168C176.915 40.3014 176.691 40.1937 176.279 40.1937C176.153 40.1937 175.938 40.2117 175.633 40.2476H175.499C175.14 40.2476 174.961 40.1847 174.961 40.0591C174.961 39.8975 175.149 39.8167 175.526 39.8167C176.064 39.7988 176.646 39.7 177.274 39.5205C177.902 39.341 178.341 39.1345 178.592 38.9011C178.754 38.7575 178.879 38.6857 178.969 38.6857C179.094 38.6857 179.157 38.8563 179.157 39.1973V40.4899C180.09 39.2871 181.291 38.6857 182.762 38.6857C184.053 38.6857 184.985 39.1614 185.559 40.1129C185.882 40.6515 186.043 41.6748 186.043 43.1828V49.3225C186.043 49.897 186.07 50.2111 186.124 50.265C186.232 50.3727 186.492 50.4266 186.904 50.4266C186.958 50.4266 187.057 50.4176 187.2 50.3996H187.388C187.568 50.3996 187.657 50.4625 187.657 50.5881ZM199.777 41.4593C199.777 42.2852 199.373 42.6981 198.566 42.6981C197.777 42.6981 197.383 42.3211 197.383 41.5671C197.383 41.3696 197.472 41.0734 197.652 40.6784C197.706 40.5528 197.732 40.4271 197.732 40.3014C197.732 39.9424 197.544 39.6462 197.168 39.4128C196.809 39.1794 196.352 39.0627 195.796 39.0627C194.72 39.0627 193.886 39.5295 193.294 40.463C192.702 41.3965 192.406 42.707 192.406 44.3946C192.406 46.2975 192.711 47.7696 193.321 48.8108C193.931 49.8341 194.791 50.3458 195.903 50.3458C196.656 50.3458 197.329 50.1124 197.921 49.6456C198.19 49.4302 198.539 49.0173 198.97 48.4069C199.06 48.3172 199.14 48.2723 199.212 48.2723C199.391 48.2723 199.481 48.3441 199.481 48.4877C199.481 48.7211 199.167 49.1609 198.539 49.8072C197.732 50.651 196.701 51.0728 195.446 51.0728C193.868 51.0728 192.559 50.5073 191.519 49.3763C190.496 48.2453 189.985 46.8181 189.985 45.0947C189.985 43.2456 190.532 41.7197 191.626 40.5168C192.72 39.2961 194.092 38.6857 195.742 38.6857C196.8 38.6857 197.732 38.964 198.539 39.5205C199.364 40.077 199.777 40.7233 199.777 41.4593ZM212.405 47.8145C212.405 47.994 212.262 48.3172 211.975 48.7839C211.706 49.2327 211.428 49.6007 211.141 49.888C210.37 50.6779 209.339 51.0728 208.047 51.0728C206.433 51.0728 205.08 50.4894 203.986 49.3225C202.91 48.1556 202.372 46.7104 202.372 44.987C202.372 43.1917 202.883 41.6927 203.905 40.4899C204.945 39.2871 206.236 38.6857 207.778 38.6857C209.052 38.6857 210.119 39.0627 210.98 39.8167C211.84 40.5528 212.298 41.5042 212.351 42.6711C211.778 42.7609 211.015 42.7968 210.065 42.7788L208.182 42.7519C208.056 42.7519 206.98 42.7788 204.954 42.8327C204.864 43.4251 204.82 43.9906 204.82 44.5292C204.82 46.3424 205.16 47.7427 205.842 48.7301C206.541 49.6995 207.518 50.1842 208.774 50.1842C209.491 50.1842 210.065 50.0226 210.495 49.6995C210.926 49.3763 211.392 48.757 211.894 47.8414C211.966 47.6978 212.065 47.626 212.19 47.626C212.334 47.626 212.405 47.6888 212.405 47.8145ZM210.065 42.3211C209.993 40.1668 209.222 39.0896 207.752 39.0896C206.299 39.0896 205.393 40.1668 205.035 42.3211H210.065Z" fill="#363434" fill-opacity="0.77"/>
<path d="M257.983 0.983294C259.176 -0.327765 261.237 -0.327764 262.43 0.983294L265.136 3.95673C265.928 4.82646 267.153 5.15505 268.273 4.79805L272.102 3.57752C273.789 3.03937 275.574 4.07095 275.953 5.80361L276.812 9.73323C277.063 10.8827 277.959 11.7804 279.107 12.0318L283.033 12.8912C284.764 13.2701 285.794 15.0569 285.257 16.7469L284.037 20.5797C283.681 21.7008 284.009 22.9272 284.878 23.7196L287.848 26.4287C289.158 27.6232 289.158 29.6863 287.848 30.8809L284.878 33.5899C284.009 34.3823 283.681 35.6087 284.037 36.7298L285.257 40.5626C285.794 42.2527 284.764 44.0394 283.033 44.4183L279.107 45.2778C277.959 45.5292 277.063 46.4269 276.812 47.5763L275.953 51.5059C275.574 53.2385 273.789 54.2702 272.102 53.732L268.273 52.5115C267.153 52.1545 265.928 52.4831 265.136 53.3528L262.43 56.3262C261.237 57.6373 259.176 57.6373 257.983 56.3262L255.276 53.3528C254.485 52.4831 253.26 52.1545 252.14 52.5115L248.311 53.732C246.623 54.2702 244.838 53.2385 244.46 51.5059L243.601 47.5763C243.35 46.4269 242.453 45.5292 241.305 45.2778L237.379 44.4183C235.649 44.0394 234.618 42.2527 235.156 40.5626L236.375 36.7298C236.732 35.6087 236.403 34.3823 235.534 33.5899L232.564 30.8809C231.255 29.6863 231.255 27.6232 232.564 26.4287L235.534 23.7196C236.403 22.9272 236.732 21.7008 236.375 20.5797L235.156 16.7469C234.618 15.0569 235.649 13.2701 237.379 12.8912L241.305 12.0318C242.453 11.7804 243.35 10.8827 243.601 9.73323L244.46 5.80361C244.838 4.07095 246.623 3.03937 248.311 3.57752L252.14 4.79805C253.26 5.15505 254.485 4.82646 255.276 3.95673L257.983 0.983294Z" fill="#03AB64"/>
<path fill-rule="evenodd" clip-rule="evenodd" d="M265.616 15.583L269.029 15.4675C271.466 15.3851 273.463 17.3845 273.381 19.8236L273.266 23.2404L275.76 25.5749C277.541 27.2413 277.541 30.0688 275.76 31.7353L273.266 34.0697L273.381 37.4865C273.463 39.9256 271.466 41.925 269.029 41.8426L265.616 41.7271L263.284 44.2248C261.619 46.0078 258.795 46.0078 257.131 44.2248L254.799 41.7271L251.386 41.8426C248.949 41.925 246.951 39.9256 247.034 37.4865L247.149 34.0697L244.655 31.7353C242.873 30.0688 242.873 27.2413 244.655 25.5749L247.149 23.2404L247.034 19.8236C246.951 17.3845 248.949 15.3851 251.385 15.4675L254.799 15.583L257.131 13.0853C258.795 11.3023 261.619 11.3023 263.284 13.0853L265.616 15.583ZM261.086 15.1416C260.611 14.6322 259.804 14.6322 259.328 15.1416L256.437 18.2391C256.199 18.4932 255.863 18.6322 255.517 18.6205L251.284 18.4773C250.588 18.4538 250.017 19.025 250.041 19.7219L250.183 23.9593C250.195 24.3069 250.057 24.6425 249.803 24.88L246.709 27.775C246.2 28.2511 246.2 29.059 246.709 29.5351L249.803 32.4301C250.057 32.6676 250.195 33.0033 250.183 33.3509L250.041 37.5882C250.017 38.2851 250.588 38.8564 251.284 38.8328L255.517 38.6896C255.863 38.6779 256.199 38.8169 256.437 39.071L259.328 42.1685C259.804 42.6779 260.611 42.6779 261.086 42.1685L263.978 39.071C264.216 38.8169 264.551 38.6779 264.898 38.6896L269.131 38.8328C269.827 38.8564 270.398 38.2851 270.374 37.5882L270.231 33.3509C270.22 33.0033 270.358 32.6676 270.612 32.4301L273.706 29.5351C274.215 29.059 274.215 28.2511 273.706 27.775L270.612 24.88C270.358 24.6425 270.22 24.3069 270.231 23.9593L270.374 19.7219C270.398 19.025 269.827 18.4538 269.131 18.4773L264.898 18.6205C264.551 18.6322 264.216 18.4932 263.978 18.2391L261.086 15.1416Z" fill="white"/>
</svg>
