<svg width="20" height="21" viewBox="0 0 20 21" fill="none" xmlns="http://www.w3.org/2000/svg">
<path d="M10.3125 0.890625C15.6641 0.890625 20 5.22656 20 10.5781C20 15.9297 15.6641 20.2656 10.3125 20.2656C4.96094 20.2656 0.625 15.9297 0.625 10.5781C0.625 5.22656 4.96094 0.890625 10.3125 0.890625ZM16.9141 14.1328C16.9922 13.9375 16.875 13.7812 16.7188 13.7422C14.9219 13.4297 14.1016 11.5547 14.0625 11.4766C13.9844 11.2812 13.9453 11.125 13.9844 11.0078C14.1016 10.7344 14.4922 10.6172 14.7266 10.5391C14.8047 10.5391 14.8828 10.5 14.9219 10.4609C15.3906 10.3047 15.625 10.0703 15.5859 9.83594C15.5859 9.64062 15.4297 9.44531 15.1953 9.36719C15.0391 9.28906 14.8047 9.28906 14.6484 9.36719C14.4531 9.48438 14.2578 9.52344 14.1016 9.52344C13.9844 9.52344 13.9062 9.48438 13.8672 9.48438C13.9062 8.54688 14.0625 7.21875 13.7109 6.47656C13.0859 5.03125 11.7969 4.32812 10.4297 4.32812C10.3906 4.32812 10.1953 4.32812 10.1562 4.32812C9.60938 4.32812 7.77344 4.48438 6.875 6.47656C6.5625 7.21875 6.67969 8.54688 6.71875 9.48438C6.67969 9.48438 6.60156 9.52344 6.48438 9.52344C6.28906 9.52344 6.09375 9.48438 5.85938 9.36719C5.58594 9.25 5.07812 9.44531 5 9.75781C4.96094 9.95312 5.03906 10.2266 5.66406 10.5C5.89844 10.5781 6.48438 10.6953 6.60156 11.0078C6.67969 11.125 6.64062 11.2812 6.5625 11.4766C6.52344 11.4766 6.52344 11.5156 6.52344 11.5156C6.48438 11.5938 5.70312 13.4297 3.86719 13.7422C3.75 13.7422 3.63281 13.8984 3.63281 14.0156C3.67188 14.5625 4.88281 14.7578 5.42969 14.875C5.46875 14.9141 5.50781 15.2266 5.58594 15.5C5.625 15.5781 5.70312 15.7344 5.9375 15.7344C6.13281 15.7344 6.44531 15.5781 6.91406 15.5781C7.61719 15.5781 7.85156 15.7344 8.39844 16.125C8.78906 16.3984 9.45312 16.9062 10.2734 16.8281C11.0938 16.8672 11.6406 16.5156 12.1875 16.125C12.7344 15.7344 12.9688 15.5781 13.6719 15.5781C14.1797 15.5781 14.4141 15.6953 14.6875 15.6953C14.8438 15.6953 14.9609 15.6172 15 15.4609C15.0781 15.2266 15.1172 14.9141 15.1562 14.875C16.2109 14.6797 16.7969 14.4453 16.9141 14.1328Z" fill="#2854DB"/>
</svg>
