<svg width="20" height="17" viewBox="0 0 20 17" fill="none" xmlns="http://www.w3.org/2000/svg">
<path d="M17.9297 4.51562C17.9297 4.71094 17.9297 4.86719 17.9297 5.0625C17.9297 10.4922 13.8281 16.7031 6.28906 16.7031C3.94531 16.7031 1.79688 16.0391 0 14.8672C0.3125 14.9062 0.625 14.9453 0.976562 14.9453C2.89062 14.9453 4.64844 14.2812 6.05469 13.1875C4.25781 13.1484 2.73438 11.9766 2.22656 10.3359C2.5 10.375 2.73438 10.4141 3.00781 10.4141C3.35938 10.4141 3.75 10.3359 4.0625 10.2578C2.1875 9.86719 0.78125 8.22656 0.78125 6.23438V6.19531C1.32812 6.50781 1.99219 6.66406 2.65625 6.70312C1.52344 5.96094 0.820312 4.71094 0.820312 3.30469C0.820312 2.52344 1.01562 1.82031 1.36719 1.23438C3.39844 3.69531 6.44531 5.33594 9.84375 5.53125C9.76562 5.21875 9.72656 4.90625 9.72656 4.59375C9.72656 2.32812 11.5625 0.492188 13.8281 0.492188C15 0.492188 16.0547 0.960938 16.8359 1.78125C17.7344 1.58594 18.6328 1.23438 19.4141 0.765625C19.1016 1.74219 18.4766 2.52344 17.6172 3.03125C18.4375 2.95312 19.2578 2.71875 19.9609 2.40625C19.4141 3.22656 18.7109 3.92969 17.9297 4.51562Z" fill="#2854DB"/>
</svg>
