<svg width="24" height="24" viewBox="0 0 24 24" fill="none" xmlns="http://www.w3.org/2000/svg">
<path fill-rule="evenodd" clip-rule="evenodd" d="M21.2635 5.19115C20.7981 5.19115 20.4122 4.79885 20.4122 4.32577V3.00577C18.5199 4.88654 13.6445 8.96885 4.4953 12.0692C4.40999 12.0999 4.32016 12.1155 4.22968 12.1154C4.02853 12.1139 3.83441 12.04 3.68174 11.9069C3.52906 11.7737 3.42769 11.59 3.39559 11.3881C3.36349 11.1863 3.40274 10.9794 3.50638 10.8042C3.61002 10.6289 3.77135 10.4966 3.96178 10.4308C12.8124 7.42846 17.5266 3.43615 19.2509 1.73077H17.8581C17.3927 1.73077 17.0068 1.33846 17.0068 0.865385C17.0068 0.392308 17.3927 0 17.8581 0H21.2635C21.7289 0 22.1149 0.392308 22.1149 0.865385V4.32692C22.1149 4.8 21.7289 5.19115 21.2635 5.19115ZM4.22968 12.1154H4.23422H4.22286H4.22968ZM20.6959 22.5C20.0943 22.5 19.7311 22.5 19.3678 22.35C18.8797 22.1423 18.4938 21.75 18.2895 21.2538C18.1419 20.8846 18.1419 20.5154 18.1419 19.9038V9.51923C18.1419 8.90769 18.1419 8.53846 18.2895 8.16923C18.4938 7.67308 18.8797 7.28077 19.3678 7.07308C19.7311 6.92308 20.0943 6.92308 20.6959 6.92308C21.2976 6.92308 21.6608 6.92308 22.0241 7.07308C22.5122 7.28077 22.8981 7.67308 23.1024 8.16923C23.25 8.53846 23.25 8.90769 23.25 9.51923V19.9038C23.25 20.5154 23.25 20.8846 23.1024 21.2538C22.8981 21.75 22.5122 22.1423 22.0241 22.35C21.6608 22.5 21.2976 22.5 20.6959 22.5ZM20.6959 8.65385C20.4008 8.65385 20.0943 8.65385 20.0149 8.67692C19.9468 8.7 19.9014 8.75769 19.8673 8.82692C19.8446 8.89615 19.8446 9.20769 19.8446 9.51923V19.9038C19.8446 20.2038 19.8446 20.5154 19.8673 20.5962C19.89 20.6654 19.9468 20.7231 20.0149 20.7462C20.1624 20.7923 21.2181 20.7923 21.377 20.7462C21.4451 20.7231 21.4905 20.6654 21.5246 20.5962C21.5473 20.5269 21.5473 20.2154 21.5473 19.9038V9.51923C21.5473 9.21923 21.5473 8.90769 21.5246 8.82692C21.5128 8.79218 21.4934 8.76062 21.4678 8.73464C21.4423 8.70865 21.4112 8.68891 21.377 8.67692C21.3089 8.65385 21.0024 8.65385 20.6959 8.65385ZM12.75 22.5C12.1484 22.5 11.7851 22.5 11.4219 22.35C10.9338 22.1423 10.5478 21.75 10.3435 21.2538C10.1959 20.8846 10.1959 20.5154 10.1959 19.9038V13.5577C10.1959 12.9462 10.1959 12.5769 10.3435 12.2077C10.5478 11.7115 10.9338 11.3192 11.4219 11.1115C11.7851 10.9615 12.1484 10.9615 12.75 10.9615C13.3516 10.9615 13.7149 10.9615 14.0781 11.1115C14.5662 11.3192 14.9522 11.7115 15.1565 12.2077C15.3041 12.5769 15.3041 12.9462 15.3041 13.5577V19.9038C15.3041 20.5154 15.3041 20.8846 15.1565 21.2538C14.9522 21.75 14.5662 22.1423 14.0781 22.35C13.7149 22.5 13.3516 22.5 12.75 22.5ZM12.75 12.6923C12.4549 12.6923 12.1484 12.6923 12.0689 12.7154C12.0008 12.7385 11.9554 12.7962 11.9214 12.8654C11.8986 12.9346 11.8986 13.2462 11.8986 13.5577V19.9038C11.8986 20.2038 11.8986 20.5154 11.9214 20.5962C11.9441 20.6654 12.0008 20.7231 12.0689 20.7462C12.2165 20.7923 13.2722 20.7923 13.4311 20.7462C13.4992 20.7231 13.5446 20.6654 13.5786 20.5962C13.6014 20.5269 13.6014 20.2154 13.6014 19.9038V13.5577C13.6014 13.2577 13.6014 12.9462 13.5786 12.8654C13.5669 12.8306 13.5474 12.7991 13.5219 12.7731C13.4963 12.7471 13.4653 12.7274 13.4311 12.7154C13.363 12.6923 13.0565 12.6923 12.75 12.6923ZM3.47595 22.35C3.83919 22.5 4.20243 22.5 4.80405 22.5C5.40568 22.5 5.76892 22.5 6.13216 22.35C6.62027 22.1423 7.00622 21.75 7.21054 21.2538C7.35811 20.8846 7.35811 20.5154 7.35811 19.9038V16.4423C7.35811 15.8308 7.35811 15.4615 7.21054 15.0923C7.00622 14.5962 6.62027 14.2038 6.13216 13.9962C5.76892 13.8462 5.40568 13.8462 4.80405 13.8462C4.20243 13.8462 3.83919 13.8462 3.47595 13.9962C2.98784 14.2038 2.60189 14.5962 2.39757 15.0923C2.25 15.4615 2.25 15.8308 2.25 16.4423V19.9038C2.25 20.5154 2.25 20.8846 2.39757 21.2538C2.60189 21.75 2.98784 22.1423 3.47595 22.35ZM4.12297 15.6C4.20243 15.5769 4.50892 15.5769 4.80405 15.5769C5.11054 15.5769 5.41703 15.5769 5.48514 15.6C5.55324 15.6231 5.61 15.6808 5.6327 15.75C5.65541 15.8308 5.65541 16.1423 5.65541 16.4423V19.9038C5.65541 20.2154 5.65541 20.5269 5.6327 20.5962C5.59865 20.6654 5.55324 20.7231 5.48514 20.7462C5.32622 20.7923 4.27054 20.7923 4.12297 20.7462C4.0888 20.7342 4.05775 20.7144 4.03218 20.6884C4.00662 20.6625 3.9872 20.6309 3.97541 20.5962C3.9527 20.5154 3.9527 20.2038 3.9527 19.9038V16.4423C3.9527 16.1308 3.9527 15.8192 3.97541 15.75C4.00946 15.6808 4.05487 15.6231 4.12297 15.6Z" fill="white"/>
</svg>
