<svg width="25" height="24" viewBox="0 0 25 24" fill="none" xmlns="http://www.w3.org/2000/svg">
<path d="M7.07802 15.482C5.66302 16.324 1.95302 18.044 4.21302 20.197C5.31602 21.248 6.54502 22 8.09002 22H16.908C18.454 22 19.683 21.248 20.786 20.197C23.046 18.044 19.336 16.324 17.921 15.482C16.2788 14.5119 14.4064 14.0001 12.499 14.0001C10.5917 14.0001 8.72023 14.5119 7.07802 15.482ZM17 6.5C17 7.69347 16.5259 8.83807 15.682 9.68198C14.8381 10.5259 13.6935 11 12.5 11C11.3065 11 10.162 10.5259 9.31804 9.68198C8.47413 8.83807 8.00002 7.69347 8.00002 6.5C8.00002 5.30653 8.47413 4.16193 9.31804 3.31802C10.162 2.47411 11.3065 2 12.5 2C13.6935 2 14.8381 2.47411 15.682 3.31802C16.5259 4.16193 17 5.30653 17 6.5Z" stroke="#888888" stroke-width="2" stroke-linecap="round" stroke-linejoin="round"/>
</svg>
