<svg width="24" height="24" viewBox="0 0 24 24" fill="none" xmlns="http://www.w3.org/2000/svg">
<path d="M4.32788 14.583C2.91265 15.4132 -0.796449 17.1064 1.46253 19.2248C2.56727 20.2598 3.79576 21 5.3415 21H14.1592C15.7049 21 16.9345 20.2598 18.037 19.2248C20.2971 17.1064 16.588 15.4121 15.1728 14.583C13.5253 13.6278 11.6547 13.1248 9.75034 13.1248C7.84597 13.1248 5.9754 13.6278 4.32788 14.583ZM14.2503 5.25C14.2503 6.44347 13.7762 7.58807 12.9323 8.43198C12.0884 9.27589 10.9438 9.75 9.75034 9.75C8.55688 9.75 7.41229 9.27589 6.56839 8.43198C5.72448 7.58807 5.25038 6.44347 5.25038 5.25C5.25038 4.05653 5.72448 2.91193 6.56839 2.06802C7.41229 1.22411 8.55688 0.75 9.75034 0.75C10.9438 0.75 12.0884 1.22411 12.9323 2.06802C13.7762 2.91193 14.2503 4.05653 14.2503 5.25ZM20.575 2.51175C20.827 2.23837 20.9519 2.10225 21.0858 2.0235C21.2435 1.92906 21.4234 1.87788 21.6073 1.87511C21.7912 1.87235 21.9726 1.9181 22.1331 2.00775C22.2681 2.08313 22.3986 2.21475 22.6574 2.48025C22.9161 2.74463 23.0466 2.87737 23.1209 3.01575C23.2083 3.18106 23.2526 3.36573 23.2499 3.5527C23.2471 3.73968 23.1973 3.92295 23.1051 4.08563C23.0264 4.22288 22.8936 4.35112 22.627 4.60762L19.4545 7.66425C18.9483 8.15137 18.6951 8.3955 18.379 8.51925C18.0629 8.643 17.7164 8.63175 17.0223 8.61488L16.9278 8.6115C16.7163 8.60587 16.6105 8.60362 16.5487 8.53387C16.4879 8.46412 16.4958 8.35613 16.5127 8.14013L16.5217 8.02425C16.5689 7.41787 16.5925 7.11525 16.7107 6.843C16.8288 6.56963 17.0335 6.348 17.4419 5.90588L20.575 2.51175Z" stroke="white" stroke-width="1.5" stroke-linecap="round" stroke-linejoin="round"/>
</svg>
